<?xml version="1.0" encoding="UTF-8" standalone="no"?>
<svg
   xmlns:dc="http://purl.org/dc/elements/1.1/"
   xmlns:cc="http://creativecommons.org/ns#"
   xmlns:rdf="http://www.w3.org/1999/02/22-rdf-syntax-ns#"
   xmlns:svg="http://www.w3.org/2000/svg"
   xmlns="http://www.w3.org/2000/svg"
   viewBox="0 0 682.66669 682.66669"
   height="682.66669"
   width="682.66669"
   xml:space="preserve"
   id="svg2"
   version="1.1"><metadata
     id="metadata8"><rdf:RDF><cc:Work
         rdf:about=""><dc:format>image/svg+xml</dc:format><dc:type
           rdf:resource="http://purl.org/dc/dcmitype/StillImage" /></cc:Work></rdf:RDF></metadata><defs
     id="defs6"><clipPath
       id="clipPath18"
       clipPathUnits="userSpaceOnUse"><path
         id="path16"
         d="m 251.852,473.575 c -5.62,-2.711 -9.969,-5.541 -15.211,-8.891 v 0 c -6.151,-3.934 -12.055,-6.968 -15.99,-11.014 v 0 c 20.661,7.08 62.979,8.502 78.711,3.034 v 0 c -1.207,2.741 -6.33,10.486 -18.694,16.183 v 0 c -5.363,2.471 -10.538,3.273 -15.006,3.273 v 0 c -7.068,0 -12.363,-2.008 -13.81,-2.585" /></clipPath><linearGradient
       id="linearGradient28"
       spreadMethod="pad"
       gradientTransform="matrix(48.460659,-36.800785,-36.800785,-48.460659,236.6264,474.707)"
       gradientUnits="userSpaceOnUse"
       y2="0"
       x2="1"
       y1="0"
       x1="0"><stop
         id="stop24"
         offset="0"
         style="stop-opacity:1;stop-color:#64b5f6" /><stop
         id="stop26"
         offset="1"
         style="stop-opacity:1;stop-color:#0d47a1" /></linearGradient><clipPath
       id="clipPath38"
       clipPathUnits="userSpaceOnUse"><path
         id="path36"
         d="m 231.069,481.325 c -19.863,-3.368 -32.307,-22.959 -42.644,-40.571 v 0 c -3.36,-5.326 -7.797,-9.296 -10.915,-14.282 v 0 c 8.301,4.388 18.465,6.05 28.289,6.789 v 0 c 21.941,-0.803 47.581,2.088 61.414,20.681 v 0 c -9.869,-6.725 -21.448,-6.324 -32.921,-5.924 v 0 c -5.297,0.185 -10.571,0.369 -15.643,-0.147 v 0 c -8.464,-1.132 -16.535,-3.815 -23.177,-8.165 v 0 l -0.133,0.551 c 5.081,4.477 10.936,7.479 16.103,11.682 v 0 c 14.554,10.902 26.132,28.726 46.355,27.741 v 0 c -4.808,2.118 -9.982,3.158 -15.329,3.158 v 0 c -3.738,0 -7.561,-0.509 -11.399,-1.513" /></clipPath><linearGradient
       id="linearGradient48"
       spreadMethod="pad"
       gradientTransform="matrix(44.986511,-34.162533,-34.162533,-44.986511,203.68417,463.6842)"
       gradientUnits="userSpaceOnUse"
       y2="0"
       x2="1"
       y1="0"
       x1="0"><stop
         id="stop44"
         offset="0"
         style="stop-opacity:1;stop-color:#64b5f6" /><stop
         id="stop46"
         offset="1"
         style="stop-opacity:1;stop-color:#0d47a1" /></linearGradient><clipPath
       id="clipPath58"
       clipPathUnits="userSpaceOnUse"><path
         id="path56"
         d="m 162.555,448.687 c -16.078,-19.438 -14.024,-43.774 -26.603,-64.152 v 0 c 17.492,17.797 43.812,19.601 65.146,30.335 v 0 c 8.103,4.635 15.932,10.49 22.345,17.366 v 0 c -3.559,-2.273 -7.673,-3.417 -12.03,-4.301 v 0 c -18.684,-1.774 -39.171,-2.56 -52.642,-15.901 v 0 c -1.977,-1.846 -3.742,-3.995 -5.875,-5.623 v 0 c -0.631,0.158 -0.218,0.726 -0.319,1.022 v 0 l 15.069,17.835 c 13.87,18.094 20.288,45.245 42.269,53.386 v 0 c -0.297,0.343 -0.693,0.213 -1.064,0.285 v 0 c -18.238,-5.01 -34.646,-13.338 -46.296,-30.252" /></clipPath><linearGradient
       id="linearGradient68"
       spreadMethod="pad"
       gradientTransform="matrix(46.601902,-35.389252,-35.389252,-46.601902,158.06303,442.89758)"
       gradientUnits="userSpaceOnUse"
       y2="0"
       x2="1"
       y1="0"
       x1="0"><stop
         id="stop64"
         offset="0"
         style="stop-opacity:1;stop-color:#64b5f6" /><stop
         id="stop66"
         offset="1"
         style="stop-opacity:1;stop-color:#0d47a1" /></linearGradient><clipPath
       id="clipPath78"
       clipPathUnits="userSpaceOnUse"><path
         id="path76"
         d="m 137.708,431.21 c -12.149,-11.5 -20.151,-27.629 -25.551,-42.75 v 0 c -6.911,-18.858 -0.437,-41.382 -3.388,-61.325 v 0 l 0.392,-1.63 c 4.506,8.519 9.96,17.215 17.351,22.892 v 0 c 11.661,9.218 23.598,17.798 34.793,27.951 v 0 c 8.16,8.487 18.01,17.265 23.588,27.25 v 0 c -4.782,-3.968 -9.645,-7.63 -15.183,-9.99 v 0 c -21.457,-7.897 -45.013,-18.787 -52.805,-44.451 v 0 c -0.315,-0.088 -0.744,-0.192 -0.895,0.158 v 0 c 2.084,8.87 7.158,16.885 10.39,25.533 v 0 c 9.189,22.687 6.59,49.678 26.604,68.376 v 0 c -5.614,-3.051 -10.386,-7.73 -15.296,-12.014" /></clipPath><linearGradient
       id="linearGradient88"
       spreadMethod="pad"
       gradientTransform="matrix(44.404072,-33.72023,-33.72023,-44.404072,111.95026,398.89313)"
       gradientUnits="userSpaceOnUse"
       y2="0"
       x2="1"
       y1="0"
       x1="0"><stop
         id="stop84"
         offset="0"
         style="stop-opacity:1;stop-color:#64b5f6" /><stop
         id="stop86"
         offset="1"
         style="stop-opacity:1;stop-color:#0d47a1" /></linearGradient><clipPath
       id="clipPath98"
       clipPathUnits="userSpaceOnUse"><path
         id="path96"
         d="m 87.129,355.723 c -10.11,-33.159 7.266,-68.346 16.881,-98.458 v 0 c 1.729,6.471 2.23,13.402 4.586,19.737 v 0 c 11.847,28.115 34.701,53.184 40.93,82.866 v 0 c -7.257,-13.935 -20.012,-21.184 -29.709,-32.21 v 0 c -8.015,-9.022 -13.592,-19.765 -15.586,-30.914 v 0 c -1.032,-3.18 -0.341,-7.017 -1.594,-9.928 v 0 c -1.102,6.075 -0.207,12.236 0.036,18.254 v 0 c 2.92,28.037 -12.014,59.276 3.262,83.811 v 0 C 97.616,379.178 89.936,367.695 87.129,355.723" /></clipPath><linearGradient
       id="linearGradient108"
       spreadMethod="pad"
       gradientTransform="matrix(62.364876,-47.359577,-47.359577,-62.364876,74.678261,348.12357)"
       gradientUnits="userSpaceOnUse"
       y2="0"
       x2="1"
       y1="0"
       x1="0"><stop
         id="stop104"
         offset="0"
         style="stop-opacity:1;stop-color:#64b5f6" /><stop
         id="stop106"
         offset="1"
         style="stop-opacity:1;stop-color:#0d47a1" /></linearGradient><clipPath
       id="clipPath118"
       clipPathUnits="userSpaceOnUse"><path
         id="path116"
         d="m 78.223,251.921 c 6.933,-22.552 27.729,-36.521 40.276,-55.611 v 0 c -5.984,25.367 5.644,46.933 11.514,69.543 v 0 c 3.196,14.167 3.472,29.255 2.804,44.51 v 0 c -4.254,-23.662 -24.32,-42.943 -24.958,-67.58 v 0 c -0.824,-7.658 0.777,-16.233 2.116,-23.709 v 0 l -0.355,-0.055 c -2.506,4.981 -4.137,10.561 -5.257,16.489 v 0 c -7.021,30.923 -33.312,55.254 -25.277,90.495 v 0 c -11.051,-21.78 -9.453,-50.862 -0.863,-74.082" /></clipPath><linearGradient
       id="linearGradient128"
       spreadMethod="pad"
       gradientTransform="matrix(87.463379,-66.419258,-66.419258,-87.463379,61.12064,302.34592)"
       gradientUnits="userSpaceOnUse"
       y2="0"
       x2="1"
       y1="0"
       x1="0"><stop
         id="stop124"
         offset="0"
         style="stop-opacity:1;stop-color:#64b5f6" /><stop
         id="stop126"
         offset="1"
         style="stop-opacity:1;stop-color:#0d47a1" /></linearGradient><clipPath
       id="clipPath138"
       clipPathUnits="userSpaceOnUse"><path
         id="path136"
         d="m 128,240 c -0.797,-2.432 -3.221,-10.219 -4,-21 v 0 c -0.641,-8.873 -1.757,-23.714 6.018,-38.982 v 0 c 2.503,-4.918 5.274,-8.662 7.403,-11.218 v 0 c -3.974,2.256 -6.025,6.107 -9.034,9.256 v 0 c -19.731,24.453 -54.05,40.518 -56.448,75.974 v 0 c -3.322,-19.286 2.466,-41.479 12.702,-56.617 v 0 c 15.363,-23.816 43.032,-32.821 66.214,-43.299 v 0 c 3.364,-1.457 6.588,-4.451 9.927,-5.526 v 0 c -14.015,15.67 -18.213,29.595 -19.723,37.455 v 0 C 139.562,193.829 139.205,203.465 139,209 v 0 c -0.381,10.282 0.206,13.966 0,24 v 0 c -0.124,6.032 -0.546,14.978 -2,26 v 0 c -2.887,-4.521 -6.347,-10.895 -9,-19" /></clipPath><linearGradient
       id="linearGradient148"
       spreadMethod="pad"
       gradientTransform="matrix(107.13367,-81.356773,-81.356773,-107.13367,72.469963,254.72969)"
       gradientUnits="userSpaceOnUse"
       y2="0"
       x2="1"
       y1="0"
       x1="0"><stop
         id="stop144"
         offset="0"
         style="stop-opacity:1;stop-color:#64b5f6" /><stop
         id="stop146"
         offset="1"
         style="stop-opacity:1;stop-color:#0d47a1" /></linearGradient><clipPath
       id="clipPath158"
       clipPathUnits="userSpaceOnUse"><path
         id="path156"
         d="m 148,186 c 6.604,-34.269 35.746,-52.29 42.1,-56.024 v 0 c 0.067,-0.332 0.145,-0.785 -0.196,-0.927 v 0 c -8.36,2.586 -15.756,8.258 -23.847,12.034 v 0 c -21.189,10.65 -47.08,9.173 -63.919,30.953 v 0 c 2.63,-6.008 6.856,-11.211 10.698,-16.542 v 0 c 10.365,-13.228 25.355,-22.334 39.516,-28.674 v 0 c 10.357,-4.748 22.151,-4.736 33.945,-4.724 v 0 c 8.304,0.009 16.608,0.017 24.411,-1.635 v 0 l 1.576,0.334 c -5.464,4.144 -13.038,10.454 -20.976,19.191 v 0 C 180.015,152.415 173.615,163.56 166,177 v 0 c -5.192,9.163 -11.657,21.609 -18,37 v 0 c -1.367,-7.375 -2.105,-17.077 0,-28" /></clipPath><linearGradient
       id="linearGradient168"
       spreadMethod="pad"
       gradientTransform="matrix(44.345718,52.905498,52.905498,-44.345718,142.33685,128.67052)"
       gradientUnits="userSpaceOnUse"
       y2="0"
       x2="1"
       y1="0"
       x1="0"><stop
         id="stop164"
         offset="0"
         style="stop-opacity:1;stop-color:#64b5f6" /><stop
         id="stop166"
         offset="1"
         style="stop-opacity:1;stop-color:#0d47a1" /></linearGradient><clipPath
       id="clipPath178"
       clipPathUnits="userSpaceOnUse"><path
         id="path176"
         d="m 276.852,110.63 c 6.77,-1.965 13.073,-2.974 18.632,-3.433 v 0 c -12.456,0.347 -21.891,-1.626 -28.52,-3.69 v 0 c -6.374,-1.984 -14.68,-5.462 -28.14,-7.919 v 0 c -4.341,-0.792 -7.944,-1.246 -10.339,-1.507 v 0 c 6.561,-2.886 12.051,-4.133 15.577,-4.739 v 0 c 0,0 22.166,-3.803 62.939,13.968 v 0 c 6.971,3.039 9.304,2.516 14.474,3.268 v 0 c -9.13,1.638 -17.852,7.587 -26.999,11.386 v 0 c -13.5,5.607 -21.677,7.047 -34.246,10.639 v 0 c -11.11,2.831 -18.198,4.342 -24.264,5.79 v 0 c 7.983,-3.712 22.555,-17.487 40.886,-23.763" /></clipPath><linearGradient
       id="linearGradient188"
       spreadMethod="pad"
       gradientTransform="matrix(-28.948841,56.694694,56.694694,28.948841,282.06396,86.455078)"
       gradientUnits="userSpaceOnUse"
       y2="0"
       x2="1"
       y1="0"
       x1="0"><stop
         id="stop184"
         offset="0"
         style="stop-opacity:1;stop-color:#64b5f6" /><stop
         id="stop186"
         offset="1"
         style="stop-opacity:1;stop-color:#0d47a1" /></linearGradient><clipPath
       id="clipPath198"
       clipPathUnits="userSpaceOnUse"><path
         id="path196"
         d="m 190.895,153.675 c 12.618,-19.759 28.526,-40.89 54.2,-42.326 v 0 c 0.159,-0.297 0.361,-0.705 0.075,-0.947 v 0 c -8.722,-0.121 -17.394,3.003 -26.196,4.102 v 0 c -7.971,1.234 -16.066,0.938 -24.161,0.643 v 0 c -15.531,-0.567 -31.059,-1.134 -45.688,9.106 v 0 c 4.212,-4.921 9.722,-8.58 14.902,-12.478 v 0 c 13.647,-9.416 30.552,-13.466 45.879,-15.131 v 0 c 19.159,-2.258 38.396,9.974 57.578,12.003 v 0 l 1.412,0.808 c -8.999,2.422 -18.395,5.761 -25.477,11.823 v 0 c -11.414,9.496 -22.309,19.434 -34.474,28.224 v 0 c -9.872,6.131 -20.432,13.906 -31.053,17.045 v 0 c 4.857,-3.848 9.449,-7.855 13.003,-12.872" /></clipPath><linearGradient
       id="linearGradient208"
       spreadMethod="pad"
       gradientTransform="matrix(22.303404,53.172615,53.172615,-22.303404,199.88277,95.09362)"
       gradientUnits="userSpaceOnUse"
       y2="0"
       x2="1"
       y1="0"
       x1="0"><stop
         id="stop204"
         offset="0"
         style="stop-opacity:1;stop-color:#64b5f6" /><stop
         id="stop206"
         offset="1"
         style="stop-opacity:1;stop-color:#0d47a1" /></linearGradient><clipPath
       id="clipPath218"
       clipPathUnits="userSpaceOnUse"><path
         id="path216"
         d="M 279.238,432.909 C 196.721,425.559 135.767,352.932 143.091,270.692 v 0 c 7.325,-82.24 80.156,-142.95 162.671,-135.601 v 0 c 82.517,7.349 143.471,79.977 136.146,162.217 v 0 c -6.922,77.717 -72.334,136.208 -149.146,136.204 v 0 c -4.47,0 -8.987,-0.199 -13.524,-0.603" /></clipPath><linearGradient
       id="linearGradient228"
       spreadMethod="pad"
       gradientTransform="matrix(298.81705,26.61529,26.61529,-298.81705,143.09148,270.69235)"
       gradientUnits="userSpaceOnUse"
       y2="0"
       x2="1"
       y1="0"
       x1="0"><stop
         id="stop224"
         offset="0"
         style="stop-opacity:1;stop-color:#64b5f6" /><stop
         id="stop226"
         offset="1"
         style="stop-opacity:1;stop-color:#0d47a1" /></linearGradient><clipPath
       id="clipPath238"
       clipPathUnits="userSpaceOnUse"><path
         id="path236"
         d="M 0,512 H 512 V 0 H 0 Z" /></clipPath><clipPath
       id="clipPath426"
       clipPathUnits="userSpaceOnUse"><path
         id="path424"
         d="M 304.859,92.537 C 279.908,85.255 261.634,83.264 257.088,82.144 v 0 c 0.995,-0.001 1.945,0.03 2.877,0.06 v 0 c 5.397,0.178 10.155,0.354 19.315,-5.518 v 0 c 1.527,-0.979 3.594,-2.262 5.629,-4.661 v 0 c 7.89,-9.298 9.561,-30.974 9.941,-36.586 v 0 c -1.89,0.909 -3.734,1.973 -5.53,2.929 v 0 c -17.16,10.754 -34.129,24.589 -46.886,41.525 v 0 L 231.471,70.92 c 17.497,-17.544 36.851,-31.2 58.022,-40.955 v 0 c -20.804,-6.533 -34.384,10.743 -50.177,19.53 v 0 c -18.402,12.736 -44.867,18.718 -67.107,9.931 v 0 C 160.248,54.929 148.66,48.307 140,37.544 v 0 c 17.503,11.951 43.569,13.204 63.474,5.442 v 0 c 26.71,-11.483 54.464,-26.04 86.663,-19.078 v 0 c 2.129,0.927 6.194,2.353 11.396,2.035 v 0 c 3.895,-0.237 6.952,-1.361 8.866,-2.248 v 0 c 7.619,-1.4 18.537,-2.522 31.454,-0.881 v 0 c 15.264,1.939 27.092,6.944 34.567,10.834 v 0 l 21.236,8.437 c 19.739,7.235 45.257,5.233 62.176,-6.686 v 0 c -8.699,10.731 -20.581,18.42 -32.852,22.776 v 0 C 399.606,68.3 371.039,57.712 349.659,41.643 v 0 C 341.004,36.188 333.373,28.336 322.177,29.03 v 0 c -4.061,-0.076 -7.977,0.121 -11.428,1.109 v 0 c 20.771,9.581 40.064,22.789 57.704,39.679 v 0 c -2.973,3.366 -6.823,6.513 -10.449,9.414 v 0 C 342.584,62.764 325.655,46.876 306.913,36.444 v 0 c -6.214,14.236 -7.567,28.928 -4.272,38.954 v 0 C 308.043,90.272 319.266,93.38 323.699,99 v 0 c -4.288,-1.698 -10.782,-4.11 -18.84,-6.463" /></clipPath><linearGradient
       id="linearGradient436"
       spreadMethod="pad"
       gradientTransform="matrix(66.611549,0,0,-66.611549,257.08749,63.703396)"
       gradientUnits="userSpaceOnUse"
       y2="0"
       x2="1"
       y1="0"
       x1="0"><stop
         id="stop432"
         offset="0"
         style="stop-opacity:1;stop-color:#64b5f6" /><stop
         id="stop434"
         offset="1"
         style="stop-opacity:1;stop-color:#0d47a1" /></linearGradient></defs><g
     transform="matrix(1.3333333,0,0,-1.3333333,0,682.66667)"
     id="g10"><g
       id="g12"><g
         clip-path="url(#clipPath18)"
         id="g14"><g
           id="g20"><g
             id="g22"><path
               id="path30"
               style="fill:url(#linearGradient28);stroke:none"
               d="m 251.852,473.575 c -5.62,-2.711 -9.969,-5.541 -15.211,-8.891 v 0 c -6.151,-3.934 -12.055,-6.968 -15.99,-11.014 v 0 c 20.661,7.08 62.979,8.502 78.711,3.034 v 0 c -1.207,2.741 -6.33,10.486 -18.694,16.183 v 0 c -5.363,2.471 -10.538,3.273 -15.006,3.273 v 0 c -7.068,0 -12.363,-2.008 -13.81,-2.585" /></g></g></g></g><g
       id="g32"><g
         clip-path="url(#clipPath38)"
         id="g34"><g
           id="g40"><g
             id="g42"><path
               id="path50"
               style="fill:url(#linearGradient48);stroke:none"
               d="m 231.069,481.325 c -19.863,-3.368 -32.307,-22.959 -42.644,-40.571 v 0 c -3.36,-5.326 -7.797,-9.296 -10.915,-14.282 v 0 c 8.301,4.388 18.465,6.05 28.289,6.789 v 0 c 21.941,-0.803 47.581,2.088 61.414,20.681 v 0 c -9.869,-6.725 -21.448,-6.324 -32.921,-5.924 v 0 c -5.297,0.185 -10.571,0.369 -15.643,-0.147 v 0 c -8.464,-1.132 -16.535,-3.815 -23.177,-8.165 v 0 l -0.133,0.551 c 5.081,4.477 10.936,7.479 16.103,11.682 v 0 c 14.554,10.902 26.132,28.726 46.355,27.741 v 0 c -4.808,2.118 -9.982,3.158 -15.329,3.158 v 0 c -3.738,0 -7.561,-0.509 -11.399,-1.513" /></g></g></g></g><g
       id="g52"><g
         clip-path="url(#clipPath58)"
         id="g54"><g
           id="g60"><g
             id="g62"><path
               id="path70"
               style="fill:url(#linearGradient68);stroke:none"
               d="m 162.555,448.687 c -16.078,-19.438 -14.024,-43.774 -26.603,-64.152 v 0 c 17.492,17.797 43.812,19.601 65.146,30.335 v 0 c 8.103,4.635 15.932,10.49 22.345,17.366 v 0 c -3.559,-2.273 -7.673,-3.417 -12.03,-4.301 v 0 c -18.684,-1.774 -39.171,-2.56 -52.642,-15.901 v 0 c -1.977,-1.846 -3.742,-3.995 -5.875,-5.623 v 0 c -0.631,0.158 -0.218,0.726 -0.319,1.022 v 0 l 15.069,17.835 c 13.87,18.094 20.288,45.245 42.269,53.386 v 0 c -0.297,0.343 -0.693,0.213 -1.064,0.285 v 0 c -18.238,-5.01 -34.646,-13.338 -46.296,-30.252" /></g></g></g></g><g
       id="g72"><g
         clip-path="url(#clipPath78)"
         id="g74"><g
           id="g80"><g
             id="g82"><path
               id="path90"
               style="fill:url(#linearGradient88);stroke:none"
               d="m 137.708,431.21 c -12.149,-11.5 -20.151,-27.629 -25.551,-42.75 v 0 c -6.911,-18.858 -0.437,-41.382 -3.388,-61.325 v 0 l 0.392,-1.63 c 4.506,8.519 9.96,17.215 17.351,22.892 v 0 c 11.661,9.218 23.598,17.798 34.793,27.951 v 0 c 8.16,8.487 18.01,17.265 23.588,27.25 v 0 c -4.782,-3.968 -9.645,-7.63 -15.183,-9.99 v 0 c -21.457,-7.897 -45.013,-18.787 -52.805,-44.451 v 0 c -0.315,-0.088 -0.744,-0.192 -0.895,0.158 v 0 c 2.084,8.87 7.158,16.885 10.39,25.533 v 0 c 9.189,22.687 6.59,49.678 26.604,68.376 v 0 c -5.614,-3.051 -10.386,-7.73 -15.296,-12.014" /></g></g></g></g><g
       id="g92"><g
         clip-path="url(#clipPath98)"
         id="g94"><g
           id="g100"><g
             id="g102"><path
               id="path110"
               style="fill:url(#linearGradient108);stroke:none"
               d="m 87.129,355.723 c -10.11,-33.159 7.266,-68.346 16.881,-98.458 v 0 c 1.729,6.471 2.23,13.402 4.586,19.737 v 0 c 11.847,28.115 34.701,53.184 40.93,82.866 v 0 c -7.257,-13.935 -20.012,-21.184 -29.709,-32.21 v 0 c -8.015,-9.022 -13.592,-19.765 -15.586,-30.914 v 0 c -1.032,-3.18 -0.341,-7.017 -1.594,-9.928 v 0 c -1.102,6.075 -0.207,12.236 0.036,18.254 v 0 c 2.92,28.037 -12.014,59.276 3.262,83.811 v 0 C 97.616,379.178 89.936,367.695 87.129,355.723" /></g></g></g></g><g
       id="g112"><g
         clip-path="url(#clipPath118)"
         id="g114"><g
           id="g120"><g
             id="g122"><path
               id="path130"
               style="fill:url(#linearGradient128);stroke:none"
               d="m 78.223,251.921 c 6.933,-22.552 27.729,-36.521 40.276,-55.611 v 0 c -5.984,25.367 5.644,46.933 11.514,69.543 v 0 c 3.196,14.167 3.472,29.255 2.804,44.51 v 0 c -4.254,-23.662 -24.32,-42.943 -24.958,-67.58 v 0 c -0.824,-7.658 0.777,-16.233 2.116,-23.709 v 0 l -0.355,-0.055 c -2.506,4.981 -4.137,10.561 -5.257,16.489 v 0 c -7.021,30.923 -33.312,55.254 -25.277,90.495 v 0 c -11.051,-21.78 -9.453,-50.862 -0.863,-74.082" /></g></g></g></g><g
       id="g132"><g
         clip-path="url(#clipPath138)"
         id="g134"><g
           id="g140"><g
             id="g142"><path
               id="path150"
               style="fill:url(#linearGradient148);stroke:none"
               d="m 128,240 c -0.797,-2.432 -3.221,-10.219 -4,-21 v 0 c -0.641,-8.873 -1.757,-23.714 6.018,-38.982 v 0 c 2.503,-4.918 5.274,-8.662 7.403,-11.218 v 0 c -3.974,2.256 -6.025,6.107 -9.034,9.256 v 0 c -19.731,24.453 -54.05,40.518 -56.448,75.974 v 0 c -3.322,-19.286 2.466,-41.479 12.702,-56.617 v 0 c 15.363,-23.816 43.032,-32.821 66.214,-43.299 v 0 c 3.364,-1.457 6.588,-4.451 9.927,-5.526 v 0 c -14.015,15.67 -18.213,29.595 -19.723,37.455 v 0 C 139.562,193.829 139.205,203.465 139,209 v 0 c -0.381,10.282 0.206,13.966 0,24 v 0 c -0.124,6.032 -0.546,14.978 -2,26 v 0 c -2.887,-4.521 -6.347,-10.895 -9,-19" /></g></g></g></g><g
       id="g152"><g
         clip-path="url(#clipPath158)"
         id="g154"><g
           id="g160"><g
             id="g162"><path
               id="path170"
               style="fill:url(#linearGradient168);stroke:none"
               d="m 148,186 c 6.604,-34.269 35.746,-52.29 42.1,-56.024 v 0 c 0.067,-0.332 0.145,-0.785 -0.196,-0.927 v 0 c -8.36,2.586 -15.756,8.258 -23.847,12.034 v 0 c -21.189,10.65 -47.08,9.173 -63.919,30.953 v 0 c 2.63,-6.008 6.856,-11.211 10.698,-16.542 v 0 c 10.365,-13.228 25.355,-22.334 39.516,-28.674 v 0 c 10.357,-4.748 22.151,-4.736 33.945,-4.724 v 0 c 8.304,0.009 16.608,0.017 24.411,-1.635 v 0 l 1.576,0.334 c -5.464,4.144 -13.038,10.454 -20.976,19.191 v 0 C 180.015,152.415 173.615,163.56 166,177 v 0 c -5.192,9.163 -11.657,21.609 -18,37 v 0 c -1.367,-7.375 -2.105,-17.077 0,-28" /></g></g></g></g><g
       id="g172"><g
         clip-path="url(#clipPath178)"
         id="g174"><g
           id="g180"><g
             id="g182"><path
               id="path190"
               style="fill:url(#linearGradient188);stroke:none"
               d="m 276.852,110.63 c 6.77,-1.965 13.073,-2.974 18.632,-3.433 v 0 c -12.456,0.347 -21.891,-1.626 -28.52,-3.69 v 0 c -6.374,-1.984 -14.68,-5.462 -28.14,-7.919 v 0 c -4.341,-0.792 -7.944,-1.246 -10.339,-1.507 v 0 c 6.561,-2.886 12.051,-4.133 15.577,-4.739 v 0 c 0,0 22.166,-3.803 62.939,13.968 v 0 c 6.971,3.039 9.304,2.516 14.474,3.268 v 0 c -9.13,1.638 -17.852,7.587 -26.999,11.386 v 0 c -13.5,5.607 -21.677,7.047 -34.246,10.639 v 0 c -11.11,2.831 -18.198,4.342 -24.264,5.79 v 0 c 7.983,-3.712 22.555,-17.487 40.886,-23.763" /></g></g></g></g><g
       id="g192"><g
         clip-path="url(#clipPath198)"
         id="g194"><g
           id="g200"><g
             id="g202"><path
               id="path210"
               style="fill:url(#linearGradient208);stroke:none"
               d="m 190.895,153.675 c 12.618,-19.759 28.526,-40.89 54.2,-42.326 v 0 c 0.159,-0.297 0.361,-0.705 0.075,-0.947 v 0 c -8.722,-0.121 -17.394,3.003 -26.196,4.102 v 0 c -7.971,1.234 -16.066,0.938 -24.161,0.643 v 0 c -15.531,-0.567 -31.059,-1.134 -45.688,9.106 v 0 c 4.212,-4.921 9.722,-8.58 14.902,-12.478 v 0 c 13.647,-9.416 30.552,-13.466 45.879,-15.131 v 0 c 19.159,-2.258 38.396,9.974 57.578,12.003 v 0 l 1.412,0.808 c -8.999,2.422 -18.395,5.761 -25.477,11.823 v 0 c -11.414,9.496 -22.309,19.434 -34.474,28.224 v 0 c -9.872,6.131 -20.432,13.906 -31.053,17.045 v 0 c 4.857,-3.848 9.449,-7.855 13.003,-12.872" /></g></g></g></g><g
       id="g212"><g
         clip-path="url(#clipPath218)"
         id="g214"><g
           id="g220"><g
             id="g222"><path
               id="path230"
               style="fill:url(#linearGradient228);stroke:none"
               d="M 279.238,432.909 C 196.721,425.559 135.767,352.932 143.091,270.692 v 0 c 7.325,-82.24 80.156,-142.95 162.671,-135.601 v 0 c 82.517,7.349 143.471,79.977 136.146,162.217 v 0 c -6.922,77.717 -72.334,136.208 -149.146,136.204 v 0 c -4.47,0 -8.987,-0.199 -13.524,-0.603" /></g></g></g></g><g
       id="g232"><g
         clip-path="url(#clipPath238)"
         id="g234"><g
           transform="translate(306.7236,363.8389)"
           id="g240"><path
             id="path242"
             style="fill:#ffffff;fill-opacity:1;fill-rule:nonzero;stroke:none"
             d="m 0,0 c -0.062,-0.106 -0.192,-0.225 -0.179,-0.322 0.067,-0.447 0.546,-0.84 0.998,-0.814 0.108,0.007 0.229,0.149 0.302,0.257 0.04,0.059 0.028,0.201 -0.017,0.264 C 0.842,-0.264 0.501,-0.036 0,0 m -7.117,2.84 c -0.739,0.166 -1.148,-0.076 -1.367,-0.657 -0.579,-1.53 -1.067,-3.087 -1.51,-4.692 0.815,-0.546 1.624,-0.692 2.499,-0.355 0.378,0.145 0.575,0.429 0.446,0.793 -0.372,1.052 -0.167,2.091 -0.02,3.136 0.079,0.57 0.137,1.14 -0.048,1.775 m -3.429,-13.327 c 1.248,-0.005 2.341,-0.003 3.416,0.304 1.472,0.422 2.282,1.408 2.408,2.914 0.105,1.241 0.174,2.486 0.21,3.73 0.004,0.158 -0.268,0.409 -0.457,0.464 -0.202,0.058 -0.487,-0.011 -0.683,-0.118 -0.998,-0.547 -1.783,-1.294 -2.3,-2.332 -0.792,-1.588 -1.642,-3.147 -2.594,-4.962 m 37.035,-4.394 c -0.002,-0.243 -0.032,-0.349 10e-4,-0.429 0.999,-2.433 2.445,-4.58 4.26,-6.482 0.298,-0.312 0.654,-0.576 1.015,-0.817 0.964,-0.647 1.979,-1.186 3.116,-1.338 1.043,0.856 1.093,0.917 1.598,2.003 -1.139,1.891 -2.4,3.757 -4.151,5.252 -0.813,0.695 -1.716,1.242 -2.69,1.694 -1.034,0.478 -2.047,0.458 -3.149,0.117 m -4.698,-5.546 c -0.194,0.699 -0.509,1.167 -1.044,1.471 -1.752,0.997 -3.584,1.45 -5.58,0.804 -0.322,-0.104 -0.648,-0.199 -0.979,-0.271 -0.649,-0.143 -1.228,-0.058 -1.75,0.421 -0.352,0.322 -0.775,0.586 -1.205,0.799 -0.972,0.482 -1.716,0.258 -2.181,-0.69 -0.563,-1.148 -0.811,-2.371 -0.625,-3.65 0.168,-1.154 0.777,-1.734 1.953,-1.715 0.767,0.012 1.559,0.113 2.292,0.332 1.578,0.47 3.122,1.049 4.685,1.569 0.354,0.117 0.728,0.174 1.03,0.244 0.319,-0.32 0.551,-0.553 0.801,-0.804 0.93,0.4 1.787,0.822 2.603,1.49 m 14.396,-13.39 c 0.087,-0.964 0.576,-1.647 1.353,-2.125 0.784,-0.482 1.575,-0.959 2.399,-1.367 0.935,-0.463 1.719,-1.058 2.281,-1.947 0.252,-0.4 0.59,-0.745 0.938,-1.176 0.3,0.192 0.565,0.308 0.76,0.495 0.841,0.801 1.661,1.624 2.536,2.485 0.264,-0.108 0.554,-0.17 0.776,-0.326 1.348,-0.944 2.703,-1.882 4.008,-2.881 0.777,-0.593 0.796,-0.77 0.441,-1.6 -0.76,-1.775 -1.507,-3.557 -2.338,-5.3 -0.84,-1.759 -2.019,-3.286 -3.466,-4.615 -2.108,-1.936 -4.244,-3.827 -6.874,-5.155 -0.791,0.131 -1.369,0.621 -1.792,1.296 -0.615,0.981 -1.218,1.971 -1.789,2.978 -0.885,1.561 -1.929,3.002 -3.115,4.35 -2.815,3.197 -5.807,6.224 -8.827,9.226 -0.495,0.49 -1.061,0.839 -1.722,1.041 -0.691,0.212 -1.385,0.411 -2.216,0.656 0.077,-0.308 0.088,-0.542 0.191,-0.724 0.191,-0.333 0.409,-0.659 0.662,-0.949 3.662,-4.188 6.979,-8.65 10.451,-12.989 2.094,-2.618 4.444,-4.973 7.081,-7.049 0.114,-0.09 0.228,-0.18 0.339,-0.274 0.92,-0.786 1.897,-1.049 3.09,-0.552 1.698,0.708 3.462,1.26 5.056,2.207 0.116,0.07 0.263,0.09 0.455,0.152 0.375,-0.529 0.635,-1.069 0.536,-1.728 -0.133,-0.906 -0.255,-1.814 -0.425,-2.713 -0.071,-0.369 -0.221,-0.735 -0.399,-1.069 -1.632,-3.073 -3.276,-6.14 -4.919,-9.207 -0.524,-0.979 -1.036,-1.964 -1.589,-2.927 -0.187,-0.327 -0.467,-0.608 -0.734,-0.884 -1.866,-1.933 -3.017,-4.246 -3.633,-6.826 -0.191,-0.798 -0.17,-1.605 0.052,-2.429 0.45,-1.674 0.801,-3.375 1.212,-5.06 0.418,-1.706 0.472,-3.432 0.319,-5.172 -0.069,-0.79 -0.313,-1.529 -0.866,-2.106 -0.669,-0.696 -1.375,-1.361 -2.106,-1.995 -1.061,-0.92 -2.15,-1.809 -3.245,-2.691 -0.421,-0.339 -0.608,-0.749 -0.537,-1.266 0.274,-1.982 -0.472,-3.687 -1.433,-5.346 -0.799,-1.38 -1.555,-2.784 -2.345,-4.168 -1.858,-3.253 -4.379,-5.89 -7.556,-7.897 -1.118,-0.707 -2.329,-1.134 -3.679,-1.257 -1.105,-0.101 -2.191,-0.418 -3.284,-0.644 -0.236,-0.049 -0.468,-0.161 -0.705,-0.168 -1.307,-0.041 -1.908,0.429 -1.973,1.575 -0.02,0.337 -0.065,0.676 -0.047,1.011 0.056,1.102 -0.248,2.102 -0.83,3.022 -0.676,1.069 -1.122,2.23 -1.491,3.433 -0.689,2.259 -1.4,4.511 -2.126,6.758 -0.131,0.406 -0.357,0.787 -0.575,1.158 -0.56,0.957 -1.318,1.843 -1.664,2.868 -0.345,1.025 -0.26,2.189 -0.415,3.286 -0.152,1.079 -0.025,2.084 0.435,3.088 0.483,1.057 0.691,2.197 0.803,3.361 0.215,2.218 -0.391,4.203 -1.644,6.005 -0.523,0.752 -1.121,1.455 -1.722,2.148 -1.017,1.174 -1.967,2.384 -2.578,3.829 -0.13,0.308 -0.306,0.61 -0.518,0.868 -0.564,0.688 -0.551,1.457 -0.199,2.171 0.503,1.024 0.422,2.05 0.289,3.113 -0.081,0.641 -0.384,1.087 -0.966,1.334 -1.162,0.491 -2.32,1.027 -3.635,0.862 -0.596,-0.075 -1.018,0.132 -1.384,0.593 -0.456,0.574 -1.03,1.02 -1.725,1.293 -0.788,0.309 -1.606,0.435 -2.419,0.155 -0.823,-0.282 -1.68,-0.54 -2.416,-0.981 -2.593,-1.557 -5.373,-2.1 -8.374,-1.921 -2.049,0.122 -4.052,0.39 -6.006,1.003 -1.214,0.381 -2.33,0.946 -3.344,1.721 -0.962,0.735 -1.947,1.439 -2.939,2.135 -1.618,1.136 -2.452,2.695 -2.578,4.64 -0.049,0.769 -0.072,1.54 -0.091,2.31 -0.025,1.084 0.299,2.092 0.702,3.082 0.201,0.493 0.367,0.987 0.249,1.544 -0.125,0.586 -0.349,1.098 -0.822,1.488 -0.223,0.186 -0.443,0.376 -0.654,0.575 -0.269,0.256 -0.392,0.572 -0.212,0.915 1.118,2.133 1.961,4.419 3.629,6.243 1.601,1.751 3.158,3.541 4.748,5.301 0.657,0.728 1.196,1.51 1.502,2.451 0.192,0.596 0.505,1.155 0.677,1.755 0.258,0.901 0.861,1.466 1.615,1.96 2.293,1.506 4.79,2.545 7.429,3.258 2.626,0.709 5.294,1.229 7.986,1.625 1.056,0.156 2.107,0.344 3.162,0.502 0.233,0.035 0.476,0.007 0.756,0.008 0.345,-0.587 0.366,-1.195 0.291,-1.822 -0.04,-0.334 -0.12,-0.669 -0.113,-1.002 0.018,-0.891 0.456,-1.436 1.319,-1.673 0.278,-0.076 0.572,-0.135 0.86,-0.135 1.977,0.002 3.83,-0.54 5.652,-1.235 0.723,-0.276 1.459,-0.525 2.193,-0.775 0.693,-0.235 1.338,-0.155 1.974,0.373 0.072,0.414 0.137,0.887 0.241,1.352 0.073,0.326 0.172,0.653 0.312,0.956 0.199,0.434 0.579,0.673 1.054,0.624 0.476,-0.049 0.978,-0.109 1.407,-0.299 1.383,-0.611 2.805,-0.678 4.281,-0.499 0.866,0.105 1.745,0.09 2.616,0.159 0.726,0.057 1.45,0.142 2.171,0.243 0.817,0.115 1.632,0.251 2.444,0.397 0.38,0.068 0.762,0.151 1.122,0.283 0.344,0.125 0.564,0.403 0.52,0.786 -0.202,1.772 -0.373,3.549 -0.651,5.309 -0.161,1.02 -0.967,1.444 -1.945,1.122 -0.597,-0.196 -1.16,-0.492 -1.743,-0.731 -0.582,-0.239 -1.178,-0.445 -1.753,-0.697 -0.832,-0.366 -1.647,-0.246 -2.378,0.174 -1.09,0.628 -2.146,1.32 -3.166,2.054 -0.332,0.238 -0.516,0.686 -0.747,1.049 -0.233,0.366 -0.404,0.774 -0.668,1.114 -0.423,0.545 -0.939,0.628 -1.545,0.273 -0.289,-0.17 -0.546,-0.4 -0.801,-0.62 -0.377,-0.326 -0.446,-0.715 -0.231,-1.171 0.225,-0.478 0.464,-0.957 0.623,-1.459 0.355,-1.12 0.235,-1.324 -0.955,-1.848 -0.53,0.12 -0.873,0.554 -1.279,0.882 -2.71,2.193 -5.42,4.387 -8.112,6.601 -0.695,0.573 -1.422,0.811 -2.284,0.493 -0.17,-0.063 -0.31,-0.206 -0.45,-0.302 0.063,-0.775 0.565,-1.144 1.13,-1.452 1.319,-0.721 2.643,-1.431 3.966,-2.145 0.38,-0.206 0.759,-0.414 1.154,-0.629 -0.026,-0.529 -0.584,-0.279 -0.739,-0.586 -0.019,-0.59 -0.01,-1.205 -0.065,-1.814 -0.053,-0.588 -0.42,-0.978 -0.982,-1.129 -0.604,-0.161 -1.223,-0.262 -2.053,-0.435 0.851,0.828 1.982,0.743 2.636,1.597 -0.233,0.261 -0.418,0.541 -0.669,0.74 -1.86,1.478 -3.808,2.827 -5.853,4.045 -1.206,0.719 -2.436,0.889 -3.769,0.51 -0.281,-0.08 -0.559,-0.171 -0.844,-0.225 -1.037,-0.199 -1.914,-0.67 -2.613,-1.464 -1.855,-2.109 -3.747,-4.191 -4.925,-6.781 -0.53,-1.168 -1.485,-1.765 -2.7,-1.963 -1.482,-0.241 -2.896,0.02 -4.237,0.698 -1.448,0.732 -2.053,2.057 -1.705,3.771 0.308,1.516 1.508,3.435 3.952,3.744 1.164,0.148 2.301,0.372 3.388,0.81 0.215,0.087 0.401,0.244 0.668,0.41 -0.122,0.344 -0.184,0.675 -0.346,0.948 -0.687,1.163 -1.404,2.309 -2.11,3.461 -0.095,0.156 -0.186,0.315 -0.285,0.485 1.516,1.037 3.089,1.895 4.284,3.241 0.032,0.036 -0.046,0.17 -0.094,0.328 -1.716,-0.035 -3.318,-0.944 -5.17,-0.889 0.045,0.424 0.046,0.754 0.121,1.067 0.112,0.468 0.274,0.924 0.417,1.385 0.425,1.365 0.236,2.588 -0.91,3.537 -0.466,0.387 -0.575,0.86 -0.583,1.407 -0.007,0.413 0.152,0.751 0.447,1.03 0.325,0.307 0.702,0.508 1.129,0.547 0.071,-0.047 0.13,-0.065 0.148,-0.101 0.739,-1.535 1.83,-2.829 2.878,-4.153 0.694,-0.877 1.29,-1.803 1.668,-2.865 0.106,-0.299 0.326,-0.559 0.49,-0.832 1.446,0.719 3.363,2.375 4.101,3.49 0.548,0.831 0.789,1.747 0.875,2.725 0.07,0.8 0.094,0.798 0.905,1.601 0.608,-0.268 0.65,-1.046 1.279,-1.431 0.195,0.085 0.474,0.156 0.69,0.312 0.356,0.257 0.425,0.533 0.218,0.87 -0.501,0.818 -1,1.645 -1.757,2.301 -0.647,-0.143 -1.251,-0.307 -1.866,-0.405 -0.57,-0.09 -1.15,-0.111 -1.785,-0.167 -0.726,1.576 -1.248,3.088 -0.469,4.749 0.412,0.874 0.809,1.754 1.221,2.628 0.618,1.31 1.26,2.609 1.858,3.928 0.267,0.589 0.628,1.079 1.141,1.47 1.213,0.922 2.573,1.561 4.027,1.976 0.836,0.239 1.704,0.24 2.596,0.125 C -5.231,8.286 -3.724,8.229 -2.223,8.155 -1.227,8.105 -0.299,7.909 0.47,7.237 0.573,7.147 0.637,7.013 0.733,6.88 -0.113,6.22 -1.167,6.15 -2.206,5.763 -2.061,5.565 -1.986,5.345 -1.857,5.308 -0.599,4.944 0.69,4.851 2.059,4.894 2.268,6.389 1.516,7.77 1.745,9.301 2.127,9.261 2.443,9.228 2.76,9.197 3.336,9.14 3.787,9.294 4.114,9.824 c 0.611,0.987 1.277,1.94 1.897,2.92 0.151,0.238 0.25,0.524 0.312,0.8 0.178,0.791 0.716,1.102 1.47,1.151 0.436,0.028 0.878,0.013 1.304,0.09 0.272,0.048 0.521,0.229 0.877,0.395 -0.187,0.225 -0.293,0.451 -0.472,0.553 -0.673,0.385 -1.374,0.721 -2.056,1.09 C 6.083,17.559 4.631,17.834 3.089,17.691 2.703,17.656 2.313,17.659 1.924,17.65 1.371,17.636 0.871,17.773 0.398,18.207 c 1.162,1.6 2.717,2.865 3.905,4.522 -0.699,1.137 -1.754,1.922 -2.668,2.826 -0.885,0.874 -1.662,1.873 -2.901,2.474 0.786,0.704 1.718,0.856 2.523,1.245 0.819,0.396 1.695,0.677 2.641,1.045 -0.148,0.305 -0.219,0.583 -0.39,0.775 -0.611,0.685 -1.26,1.338 -1.883,2.012 -0.188,0.204 -0.342,0.439 -0.581,0.749 0.917,0.4 1.736,0.756 2.738,1.193 -0.368,0.204 -0.548,0.38 -0.744,0.4 -1.013,0.103 -2.029,0.169 -3.045,0.243 -1.355,0.098 -2.71,0.202 -4.065,0.278 -0.269,0.015 -0.544,-0.083 -0.915,-0.145 0.143,-0.395 0.253,-0.695 0.361,-0.995 -0.058,-0.077 -0.1,-0.182 -0.176,-0.223 -0.256,-0.135 -0.518,-0.264 -0.789,-0.364 -1.403,-0.52 -1.939,-0.402 -2.958,0.704 -0.88,0.957 -1.696,1.976 -2.814,2.627 0.031,0.405 0.311,0.402 0.529,0.457 0.739,0.187 1.536,0.152 2.275,0.557 -0.177,0.892 -0.711,1.349 -1.55,1.515 -1.19,0.235 -2.374,0.495 -3.565,0.72 -3.478,0.658 -6.961,1.295 -10.436,1.965 -0.815,0.157 -1.548,0.166 -2.123,-0.674 -0.166,0.355 -0.217,0.688 -0.408,0.815 -0.261,0.176 -0.624,0.24 -0.951,0.275 -2.074,0.218 -4.15,0.41 -6.224,0.623 -0.428,0.044 -0.851,0.141 -1.372,0.23 0.521,0.939 1.261,1.308 2.194,1.282 1.213,-0.033 2.423,-0.121 3.635,-0.188 0.096,-0.004 0.192,-0.026 0.288,-0.039 1.161,-0.153 2.05,0.19 2.738,1.208 1.051,1.551 0.882,1.406 2.711,1.489 3.687,0.166 7.378,0.284 11.063,0.477 2.281,0.12 4.561,0.293 6.83,0.537 0.956,0.102 1.913,0.37 2.818,0.7 2.096,0.763 4.272,0.943 6.459,0.911 3.008,-0.044 6.013,-0.218 9.019,-0.343 0.14,-0.006 0.277,-0.071 0.524,-0.138 C 12.394,49.528 11.685,49.65 11.028,49.559 10.259,49.452 9.479,49.419 8.705,49.34 7.98,49.266 7.258,49.167 6.533,49.092 5.808,49.018 5.078,48.979 4.355,48.89 3.634,48.801 2.92,48.651 2.198,48.563 1.426,48.469 0.65,48.396 -0.125,48.352 -0.852,48.31 -1.583,48.357 -2.306,48.291 -3,48.227 -3.752,48.322 -4.48,47.805 c 1.156,-1.037 2.411,-1.43 3.802,-1.432 1.311,-10e-4 2.623,0.025 3.934,0.079 1.277,0.051 2.517,-0.095 3.723,-0.522 4.479,-1.587 8.962,-3.159 13.435,-4.762 2.282,-0.818 4.542,-1.694 6.816,-2.533 0.408,-0.15 0.832,-0.261 1.256,-0.351 0.109,-0.023 0.296,0.072 0.363,0.17 0.067,0.097 0.047,0.267 0.029,0.401 -0.012,0.089 -0.077,0.176 -0.133,0.253 -0.657,0.891 -1.317,1.779 -2.016,2.721 0.094,0.244 0.371,0.232 0.675,0.188 2.448,-0.353 4.895,-0.699 7.342,-1.054 0.086,-0.012 0.161,-0.096 0.278,-0.169 -0.606,-0.327 -1.327,0.275 -1.863,-0.229 -0.078,-0.442 0.266,-0.507 0.509,-0.619 2.466,-1.136 4.95,-2.233 7.403,-3.397 3.942,-1.87 7.865,-3.778 11.792,-5.678 2.911,-1.409 5.487,-3.265 7.703,-5.621 1.061,-1.125 2.203,-2.175 3.319,-3.248 1.377,-1.323 2.969,-2.322 4.734,-3.06 1.073,-0.449 2.139,-0.918 3.215,-1.36 0.977,-0.402 1.738,-1.038 2.268,-1.949 0.354,-0.608 0.722,-1.208 0.953,-1.929 -0.471,0.31 -0.915,0.671 -1.416,0.921 -1.778,0.887 -3.573,1.739 -5.366,2.594 -0.168,0.08 -0.369,0.102 -0.558,0.123 -0.217,0.025 -0.468,-0.3 -0.386,-0.499 0.072,-0.175 0.15,-0.36 0.273,-0.498 0.934,-1.047 1.879,-2.082 2.82,-3.122 0.365,-0.405 0.784,-0.717 1.342,-0.807 0.549,-0.089 0.982,-0.395 1.387,-0.751 1.381,-1.213 2.774,-2.415 4.145,-3.641 1.407,-1.257 2.742,-2.599 4.199,-3.795 4.09,-3.358 7.083,-7.51 9.206,-12.305 0.976,-2.204 1.865,-4.446 2.849,-6.647 0.693,-1.551 0.869,-3.17 0.688,-4.814 -0.228,-2.082 0.118,-4.028 1.037,-5.894 0.277,-0.563 0.536,-1.135 0.78,-1.712 0.246,-0.582 0.425,-1.181 0.269,-1.827 -0.322,-0.168 -0.439,0.099 -0.54,0.279 -0.563,1.01 -1.098,2.036 -1.659,3.047 -0.226,0.408 -0.336,0.904 -0.881,1.229 -0.104,-0.183 -0.238,-0.32 -0.261,-0.473 -0.193,-1.302 -0.182,-2.577 0.332,-3.833 0.815,-1.991 1.912,-3.761 3.49,-5.267 2.17,-2.071 3.761,-4.53 4.579,-7.437 0.702,-2.501 0.786,-5.037 0.365,-7.593 -0.117,-0.707 -0.174,-1.433 -0.533,-2.214 -0.206,0.195 -0.383,0.323 -0.508,0.488 -1.487,1.966 -2.961,3.941 -4.451,5.904 -0.26,0.343 -0.564,0.657 -0.871,0.962 -0.154,0.151 -0.578,-0.047 -0.548,-0.262 0.059,-0.421 0.114,-0.859 0.279,-1.244 0.91,-2.129 1.835,-4.251 2.787,-6.361 2.008,-4.449 3.64,-9.028 4.957,-13.724 0.376,-1.339 0.686,-2.711 1.381,-3.951 0.152,-0.273 0.237,-0.688 0.146,-0.972 -0.236,-0.724 0.045,-1.332 0.282,-1.957 0.343,-0.901 0.722,-1.788 1.071,-2.687 0.23,-0.589 0.338,-1.191 0.238,-1.837 -0.206,-1.332 -0.362,-2.671 -0.563,-4.004 -0.04,-0.267 -0.188,-0.518 -0.317,-0.859 -0.277,0.164 -0.532,0.239 -0.657,0.409 -0.197,0.266 -0.323,0.59 -0.451,0.9 -1.013,2.451 -2.006,4.91 -2.688,7.48 -0.099,0.369 -0.214,0.757 -0.422,1.071 -1.096,1.657 -1.632,3.584 -2.633,5.29 -0.977,1.664 -1.846,3.391 -2.76,5.091 -0.204,0.381 -0.428,0.762 -0.164,1.314 0.247,-0.129 0.525,-0.209 0.716,-0.383 0.822,-0.749 1.614,-1.532 2.431,-2.288 0.42,-0.39 0.818,-0.844 1.583,-0.772 0.056,0.238 0.204,0.516 0.163,0.762 -0.077,0.471 -0.242,0.931 -0.407,1.383 -2.055,5.614 -4.068,11.244 -6.354,16.771 -0.258,0.622 -0.434,1.277 -0.676,1.907 -0.136,0.357 -0.29,0.721 -0.509,1.032 -0.419,0.594 -1.016,0.876 -1.762,0.794 -0.241,-0.026 -0.49,-0.034 -0.721,-0.099 -0.792,-0.224 -1.319,0.114 -1.691,0.765 -0.454,0.796 -0.89,1.603 -1.331,2.406 -0.511,0.931 -1.027,1.859 -1.528,2.795 -0.98,1.83 -3.772,2.245 -5.27,1.576 -0.563,-0.251 -0.98,-0.631 -1.024,-1.29 -0.165,-2.428 -0.959,-4.717 -1.577,-7.046 -0.473,-1.78 -0.813,-3.587 -0.506,-5.433 0.134,-0.804 0.338,-1.605 0.603,-2.376 0.305,-0.885 0.446,-1.785 0.393,-2.702 -0.087,-1.54 -0.245,-3.076 -0.357,-4.614 -0.029,-0.403 -0.152,-0.739 -0.474,-1.051 -0.732,0.222 -1.089,0.8 -1.433,1.365 -0.957,1.565 -1.897,3.14 -2.834,4.717 -1.876,3.152 -3.755,6.303 -5.615,9.465 -0.547,0.933 -1.236,1.702 -2.136,2.321 -2.115,1.456 -4.202,2.951 -6.294,4.441 -0.495,0.352 -0.996,0.577 -1.625,0.401 -2.21,-0.619 -4.43,-0.301 -6.651,-0.071 -0.622,0.064 -1.253,0.038 -1.878,0.076 -0.227,0.014 -0.458,0.072 -0.671,0.149 -0.779,0.284 -1.49,0.275 -2.19,-0.263 -1.218,-0.937 -2.523,-0.87 -3.83,-0.186 -1.033,0.541 -2.039,1.129 -2.801,2.037 -0.389,0.465 -0.841,0.586 -1.425,0.411 -0.509,-0.152 -1.031,-0.252 -1.458,-0.636" /></g><g
           transform="translate(243.0366,398.3379)"
           id="g244"><path
             id="path246"
             style="fill:#ffffff;fill-opacity:1;fill-rule:nonzero;stroke:none"
             d="M 0,0 C -0.277,0.128 -0.4,0.237 -0.495,0.216 -0.657,0.181 -0.801,0.064 -0.953,-0.019 -0.875,-0.115 -0.78,-0.301 -0.724,-0.29 -0.524,-0.25 -0.337,-0.144 0,0 M 6.732,3.749 C 7.503,3.752 7.503,3.752 7.708,4.419 7.242,4.517 7.041,4.202 6.732,3.749 M -29.491,-52.97 c 0.703,-0.342 1.073,-0.554 1.468,-0.704 0.429,-0.163 0.579,-0.045 0.91,0.623 -0.387,0.378 -0.885,0.564 -1.409,0.592 -0.221,0.012 -0.455,-0.228 -0.969,-0.511 m 28.749,41.125 c -0.558,-0.517 -0.467,-1.12 -0.517,-1.697 0.564,-0.133 1.042,-0.246 1.699,-0.402 -0.42,0.779 -0.652,1.479 -1.182,2.099 m -32.247,-42.419 c 1.285,-0.624 1.796,-0.514 2.412,0.449 -0.882,0.555 -1.599,0.279 -2.412,-0.449 m 28.336,44.065 c 0.648,-0.826 0.802,-0.884 1.52,-0.475 0.419,0.238 0.816,0.519 1.21,0.797 0.114,0.08 0.241,0.206 0.267,0.33 0.035,0.174 0.038,0.401 -0.05,0.543 -0.083,0.135 -0.323,0.293 -0.454,0.263 -0.982,-0.222 -2.028,-0.368 -2.493,-1.458 m -24.712,-35.977 c 0.747,0.756 1.316,1.988 1.47,3.099 -1.548,0.932 -2.704,0.833 -4.067,-0.389 0.216,-0.13 0.401,-0.298 0.618,-0.361 0.663,-0.193 1.044,-0.635 1.314,-1.242 0.17,-0.383 0.431,-0.725 0.665,-1.107 m -0.974,-1.703 c -0.307,-1.098 -0.626,-2.193 -0.914,-3.297 -0.049,-0.19 0.027,-0.412 0.05,-0.668 0.669,0.197 1.086,0.592 1.506,0.978 0.632,0.579 0.93,1.324 0.995,2.155 0.015,0.204 -0.078,0.518 -0.23,0.614 -0.437,0.278 -0.922,0.548 -1.454,0.163 -0.038,0.129 -0.037,0.333 -0.119,0.373 -0.376,0.188 -0.775,0.33 -1.072,0.45 -0.22,-0.098 -0.33,-0.115 -0.391,-0.179 -1.185,-1.254 -2.37,-2.51 -3.54,-3.779 -0.156,-0.17 -0.27,-0.406 -0.322,-0.63 -0.045,-0.197 0.024,-0.42 0.044,-0.64 0.607,0.019 0.979,0.333 1.33,0.654 1.379,1.262 2.746,2.537 4.117,3.806 m -36.748,-24.276 c 0.218,1.379 0.461,2.754 0.649,4.136 0.425,3.132 1.353,6.114 2.678,8.981 0.446,0.964 0.9,1.925 1.361,2.883 1.82,3.787 3.639,7.575 5.47,11.357 0.505,1.044 1.036,2.074 1.574,3.102 1.771,3.386 4.283,6.192 7.029,8.814 2.632,2.511 5.46,4.795 8.275,7.096 3.978,3.25 7.929,6.535 11.905,9.787 3.574,2.925 7.487,5.355 11.479,7.665 0.366,0.211 0.705,0.432 1.217,0.264 0.443,-0.144 0.803,0.211 1.035,0.61 l -0.041,-0.035 c 0.066,0.044 0.132,0.087 0.198,0.131 -0.075,0.07 -0.15,0.139 -0.225,0.209 l 0.045,-0.029 c 0.737,0.619 1.538,1.124 2.486,1.364 l -0.026,0.034 c 0.831,-0.373 1.292,-0.267 2.126,0.547 -0.59,0.123 -1.058,-0.222 -1.556,-0.197 l 0.042,-0.031 c 0.214,0.187 0.403,0.416 0.646,0.552 1.267,0.714 2.539,1.419 3.828,2.092 0.381,0.199 0.822,0.288 1.237,0.419 0.416,0.132 0.839,0.241 1.252,0.38 1.001,0.337 1.049,0.41 1.121,1.578 1.301,0.686 2.616,1.402 3.953,2.077 0.561,0.283 0.915,0.64 1.016,1.29 0.054,0.355 0.247,0.748 0.5,1.003 1.365,1.374 2.762,2.718 4.167,4.053 0.196,0.187 0.482,0.318 0.75,0.387 1.923,0.495 3.851,0.972 5.78,1.444 2.167,0.529 4.338,1.043 6.505,1.572 0.645,0.157 0.978,-0.234 1.378,-0.664 C 19.946,9.572 18.811,8.85 17.734,8.059 18.11,7.606 18.517,7.732 18.875,7.818 c 1.038,0.249 2.07,0.521 3.094,0.817 0.656,0.19 1.302,0.338 1.967,0.224 C 24.112,8.432 23.771,8.335 23.582,8.149 22.869,7.45 22.963,7.087 23.944,6.776 24.207,6.692 24.476,6.632 24.827,6.539 24.465,5.659 23.892,5.106 23.146,4.731 22.541,4.426 21.906,4.18 21.286,3.905 18.847,2.825 16.42,1.718 13.968,0.67 11.773,-0.268 9.958,-1.67 8.5,-3.535 7.386,-4.959 6.042,-6.126 4.578,-7.185 3.479,-7.979 2.448,-8.866 1.398,-9.726 0.994,-10.057 0.559,-10.389 0.575,-11.06 c 0.566,-0.397 1.393,-0.45 1.76,-1.296 -0.633,-0.658 -1.288,-1.437 -2.053,-2.089 -0.38,-0.324 -0.961,-0.415 -1.56,-0.656 -0.479,-0.49 -0.446,-1.231 -0.491,-1.943 -0.03,-0.483 0.484,-0.539 0.706,-0.817 0.021,-0.363 -0.215,-0.517 -0.492,-0.636 -0.845,-0.364 -1.69,-0.73 -2.537,-1.087 -0.484,-0.205 -0.974,-0.395 -1.477,-0.599 -0.008,-0.781 0.309,-1.369 0.699,-1.915 0.239,-0.335 0.594,-0.491 1.024,-0.357 0.093,0.03 0.184,0.064 0.274,0.1 1.145,0.451 2.306,0.671 3.54,0.209 0.115,-0.223 -0.125,-0.269 -0.276,-0.341 -1.316,-0.636 -2.693,-1.004 -4.155,-1.186 -2.021,-0.252 -4.021,-0.66 -6.031,-0.998 -0.575,-0.097 -1.149,-0.202 -1.727,-0.271 -1.697,-0.206 -3.003,-1.037 -3.977,-2.412 -1.117,-1.578 -1.708,-3.351 -1.905,-5.25 -0.099,-0.956 -0.185,-1.928 0.137,-2.869 0.151,-0.444 0.057,-0.84 -0.134,-1.251 -0.218,-0.47 -0.559,-0.906 -0.545,-1.425 0.32,-0.376 0.674,-0.238 0.979,-0.154 0.981,0.271 1.961,0.555 2.925,0.88 1.069,0.36 2.053,0.902 2.866,1.683 1.046,1.005 2.042,2.063 3.058,3.099 0.33,0.336 0.658,0.674 1.099,1.125 0.062,-0.69 0.107,-1.198 0.161,-1.804 0.716,0.064 1.38,0.123 2.173,0.194 -0.057,-0.383 -0.066,-0.65 -0.139,-0.899 -0.177,-0.601 -0.401,-1.189 -0.566,-1.793 -0.057,-0.205 0.006,-0.442 0.019,-0.778 0.938,0.181 1.77,0.342 2.639,0.51 0.023,-0.251 0.068,-0.438 0.051,-0.62 -0.221,-2.398 -0.453,-4.796 -0.678,-7.195 -0.106,-1.138 -0.548,-2.14 -1.216,-3.057 -0.142,-0.196 -0.268,-0.403 -0.413,-0.596 -0.543,-0.725 -0.803,-1.496 -0.676,-2.431 0.141,-1.042 -0.128,-2.082 -0.028,-3.112 -1.594,-0.094 -2.957,0.464 -3.739,1.448 0.109,0.516 0.532,0.773 0.922,1.053 0.434,0.311 0.891,0.592 1.305,0.926 0.606,0.49 1.054,1.09 1.208,1.975 -0.293,0.057 -0.518,0.143 -0.742,0.139 -1.554,-0.025 -3.112,0 -4.659,-0.126 -1.545,-0.126 -3.077,-0.405 -4.613,-0.631 -0.113,-0.017 -0.208,-0.157 -0.31,-0.24 0.113,-0.129 0.208,-0.347 0.341,-0.371 0.559,-0.104 1.15,-0.073 1.725,-0.49 -0.385,-0.54 -0.927,-0.995 -0.964,-1.706 -0.034,-0.657 0.195,-1.214 0.551,-1.758 0.406,-0.622 0.968,-0.91 1.651,-0.891 0.252,-0.465 0.025,-0.733 -0.287,-0.891 -0.387,-0.195 -0.807,-0.332 -1.224,-0.457 -0.929,-0.278 -1.862,-0.544 -2.799,-0.79 -0.271,-0.071 -0.565,-0.057 -0.994,-0.095 0.238,0.566 0.428,1.019 0.653,1.553 -0.654,0.245 -1.185,0.165 -1.69,-0.173 -0.362,-0.242 -0.72,-0.492 -1.069,-0.753 -0.855,-0.637 -1.708,-1.278 -2.554,-1.926 -0.586,-0.449 -1.181,-0.837 -1.976,-0.794 -0.512,0.028 -0.925,-0.222 -1.286,-0.581 -0.653,-0.649 -1.327,-1.276 -1.984,-1.92 -0.97,-0.949 -1.937,-1.9 -2.896,-2.859 -1.171,-1.171 -2.449,-2.205 -3.927,-2.97 -1.553,-0.804 -2.719,-1.984 -3.639,-3.454 -1.617,-2.587 -3.031,-5.28 -4.368,-8.015 -0.205,-0.419 -0.413,-0.836 -0.793,-1.212 -0.012,0.412 -0.033,0.823 -0.033,1.235 0,2.135 -0.31,4.226 -0.934,6.267 -0.233,0.764 -0.329,0.79 -1.158,0.687 -1.25,-0.157 -2.502,-0.304 -3.713,-0.45 -0.418,0.399 -0.763,0.735 -1.115,1.063 -1.208,1.125 -2.852,0.924 -3.851,-0.276 -0.536,-0.643 -0.969,-1.335 -1.244,-2.111 -0.819,-2.32 -1.662,-4.633 -2.398,-6.979 -0.634,-2.024 -1.089,-4.102 -1.712,-6.13 -0.339,-1.103 -0.243,-2.079 0.357,-3.037 0.227,-0.362 0.434,-0.735 0.679,-1.153 0.331,0.108 0.618,0.154 0.857,0.286 0.847,0.471 1.68,0.967 2.514,1.46 0.433,0.255 0.789,0.596 0.865,1.107 0.111,0.757 0.603,1.041 1.288,1.159 0.329,0.058 0.647,0.174 1.067,0.29 0.089,-0.303 0.255,-0.571 0.218,-0.808 -0.08,-0.517 -0.226,-1.032 -0.411,-1.524 -0.666,-1.76 -1.36,-3.51 -2.043,-5.264 -0.088,-0.225 -0.186,-0.446 -0.262,-0.675 -0.326,-0.994 -0.134,-1.411 0.866,-1.769 0.311,-0.111 0.661,-0.112 0.993,-0.168 0.332,-0.057 0.674,-0.088 0.994,-0.186 0.727,-0.223 1.139,-0.73 1.15,-1.492 0.007,-0.478 -0.043,-0.96 -0.102,-1.436 -0.361,-2.896 -0.216,-5.762 0.434,-8.615 0.702,-0.443 1.518,-0.302 2.351,-0.507 -0.13,-0.891 -0.583,-1.584 -1.008,-2.299 -0.557,0.267 -0.698,0.757 -0.932,1.165 -1.083,1.883 -2.155,3.771 -3.223,5.663 -0.786,1.394 -1.722,2.675 -2.814,3.852 -0.557,0.6 -1.097,1.231 -1.546,1.913 -0.7,1.064 -1.543,1.979 -2.547,2.754 -1.239,0.956 -2.242,2.128 -3.166,3.374 -2.095,2.819 -2.846,5.971 -2.335,9.426 0.127,0.857 0.269,1.718 0.485,2.556 1.123,4.354 1.748,8.792 2.358,13.234 0.144,1.05 0.308,2.099 0.406,3.154 0.145,1.561 0.669,3.002 1.306,4.416 0.151,0.334 0.413,0.683 0.005,1.113 -0.143,-0.107 -0.345,-0.182 -0.413,-0.322 -0.578,-1.167 -1.174,-2.323 -1.524,-3.591 -0.846,-3.068 -1.73,-6.127 -2.605,-9.187 -0.129,-0.451 -0.137,-0.975 -0.658,-1.222 z" /></g><g
           transform="translate(233.04,217.3232)"
           id="g248"><path
             id="path250"
             style="fill:#ffffff;fill-opacity:1;fill-rule:nonzero;stroke:none"
             d="m 0,0 c 0.169,-0.887 0.586,-1.307 1.021,-1.683 0.5,-0.432 0.791,-0.951 0.955,-1.577 0.231,-0.885 0.506,-1.758 0.747,-2.64 0.218,-0.803 0.628,-1.474 1.148,-2.137 2.208,-2.811 4.938,-5.025 7.884,-7.008 0.84,-0.565 1.681,-1.131 2.521,-1.697 -0.333,-1.19 -0.75,-1.592 -1.844,-1.609 -0.625,-0.009 -1.268,0.049 -1.875,0.192 -3.302,0.774 -6.127,2.396 -8.419,4.876 -0.514,0.555 -0.895,1.257 -1.232,1.941 -0.28,0.57 -0.577,1.1 -1.023,1.556 -0.539,0.555 -1.076,1.115 -1.57,1.709 -0.643,0.773 -1.243,1.582 -1.939,2.474 -0.168,0.011 -0.54,-0.06 -0.803,0.076 -0.276,0.142 -0.49,0.458 -0.658,0.741 -3.123,5.27 -6.361,10.478 -8.834,16.099 -1.941,4.413 -3.888,8.823 -5.835,13.232 -0.487,1.102 -1.02,2.185 -1.472,3.302 -0.412,1.017 -1.08,1.799 -1.917,2.495 -1.971,1.639 -3.91,3.318 -5.858,4.987 -1.437,1.231 -2.739,2.589 -3.892,4.089 -2.009,2.614 -3.75,5.385 -5.131,8.379 -0.472,1.022 -0.807,2.065 -0.843,3.19 -0.043,1.397 -0.197,2.805 -0.064,4.187 0.113,1.181 0.533,2.34 0.872,3.493 0.381,1.293 0.873,2.556 1.23,3.855 0.803,2.912 0.773,5.813 -0.284,8.667 -0.198,0.534 -0.463,1.042 -0.72,1.615 0.601,0.237 1.236,0.172 1.845,0.205 0.722,0.04 1.314,0.292 1.815,0.795 0.956,0.96 1.911,1.922 2.872,2.878 0.264,0.263 0.547,0.507 0.942,0.872 0.009,-0.545 0.016,-0.904 0.024,-1.343 1.449,0.11 2.704,-0.453 4.007,-0.784 2.167,-0.55 4.349,-0.982 6.625,-1.001 1.063,-0.823 2.068,-1.687 2.687,-2.954 0.506,-1.037 1.43,-1.692 2.524,-2.063 0.733,-0.248 1.488,-0.434 2.235,-0.64 0.561,-0.155 1.129,-0.282 1.686,-0.447 0.753,-0.223 1.461,-0.556 2.013,-1.119 1.59,-1.622 3.169,-3.255 4.727,-4.908 0.254,-0.27 0.408,-0.652 0.549,-1.005 0.268,-0.669 0.745,-1.125 1.384,-1.414 0.617,-0.279 1.244,-0.542 1.884,-0.763 2.704,-0.931 5.425,-1.813 8.117,-2.777 1.321,-0.472 2.587,-1.094 3.887,-1.626 0.685,-0.28 1.056,-0.775 1.289,-1.459 0.556,-1.629 0.555,-3.204 -0.262,-4.757 -0.676,-1.286 -1.218,-2.628 -1.592,-4.032 -0.542,-2.032 -0.693,-4.1 -0.32,-6.163 0.453,-2.51 -0.018,-4.884 -0.833,-7.238 C 10.021,30.34 9.615,29.781 8.931,29.424 8.588,29.244 8.268,29.02 7.919,28.853 6.694,28.264 6.001,27.263 5.623,26.007 5.174,24.518 4.883,22.986 4.962,21.445 5.136,18.053 4.714,14.714 4.223,11.375 4.034,10.088 3.783,8.81 3.613,7.521 3.522,6.832 3.321,6.203 2.932,5.636 2.373,4.82 2.087,3.909 1.908,2.952 1.837,2.574 1.759,2.193 1.638,1.828 1.361,0.997 1.064,0.17 0,0" /></g><g
           transform="translate(263.8291,191.5205)"
           id="g252"><path
             id="path254"
             style="fill:#ffffff;fill-opacity:1;fill-rule:nonzero;stroke:none"
             d="m 0,0 c 0.431,0.194 0.748,-0.095 1.074,-0.271 1.236,-0.67 2.457,-1.364 3.686,-2.046 2.585,-1.436 5.216,-2.772 7.957,-3.9 2.295,-0.945 4.603,-1.07 6.976,-0.393 0.979,0.278 1.954,0.568 2.94,0.822 0.681,0.176 1.088,0.612 1.309,1.239 0.193,0.545 0.336,1.108 0.533,1.651 0.361,0.995 0.724,1.991 1.128,2.969 0.223,0.543 0.59,1.004 1.147,1.264 2.328,1.086 4.637,2.216 6.995,3.233 2.159,0.931 4.498,1.18 6.807,1.477 1.345,0.173 2.71,0.214 4.067,0.273 3.201,0.141 6.403,0.271 9.607,0.377 1.163,0.039 2.329,0.02 3.493,-0.008 1.115,-0.028 2.228,-0.113 3.343,-0.149 1.027,-0.034 2.037,0.03 2.945,0.611 0.239,0.154 0.542,0.207 0.806,0.328 0.883,0.402 1.637,0.124 2.238,-0.516 0.424,-0.451 0.752,-1.001 1.068,-1.539 0.465,-0.793 0.904,-1.592 1.617,-2.208 0.463,-0.401 0.621,-0.965 0.708,-1.543 0.095,-0.632 0.325,-1.202 0.674,-1.737 0.334,-0.51 0.777,-0.709 1.367,-0.549 0.655,0.178 1.304,0.379 1.959,0.554 0.515,0.139 1.038,0.245 1.553,0.382 0.735,0.197 1.366,0.007 1.899,-0.952 0.115,-0.207 0.161,-0.452 0.233,-0.681 0.101,-0.323 0.179,-0.653 0.301,-0.967 0.4,-1.032 1.117,-1.399 2.194,-1.095 0.415,0.117 0.805,0.325 1.204,0.491 0.302,-0.264 0.011,-0.449 -0.076,-0.626 -0.663,-1.342 -1.346,-2.674 -2.019,-4.011 -0.129,-0.257 -0.248,-0.523 -0.361,-0.79 -0.193,-0.453 -0.12,-0.842 0.288,-1.153 0.152,-0.115 0.287,-0.252 0.411,-0.362 -0.016,-0.134 0.006,-0.263 -0.046,-0.309 -0.83,-0.744 -1.245,-1.705 -1.478,-2.759 -0.224,-1.008 -0.698,-1.888 -1.309,-2.717 -0.8,-1.088 -1.661,-2.144 -2.017,-3.492 -0.144,-0.544 -0.562,-0.861 -1.066,-1.117 -4.46,-2.263 -9.026,-4.257 -13.895,-5.504 -3.57,-0.915 -7.137,-1.838 -10.693,-2.804 -0.728,-0.199 -1.421,-0.258 -2.149,-0.125 -0.521,0.095 -1.045,0.175 -1.511,0.253 -0.346,0.446 -0.2,0.798 0.056,1.109 0.244,0.298 0.561,0.538 0.798,0.841 0.547,0.7 0.42,1.507 -0.331,1.994 -0.742,0.481 -1.548,0.802 -2.465,0.734 -0.921,-0.067 -1.841,-0.167 -2.763,-0.191 -4.322,-0.111 -8.626,-0.518 -12.936,-0.812 -2.369,-0.161 -4.752,-0.139 -7.127,-0.102 -0.806,0.013 -1.618,0.281 -2.405,0.513 -0.741,0.219 -1.443,0.567 -2.176,0.817 -1.1,0.374 -2.192,0.795 -3.321,1.05 -2.591,0.586 -3.99,2.216 -4.462,4.735 -0.036,0.19 -0.075,0.38 -0.088,0.571 -0.043,0.598 -0.387,0.983 -0.907,1.209 -0.798,0.349 -1.609,0.672 -2.42,0.992 -0.534,0.21 -1.079,0.396 -1.708,0.626 0.241,0.626 0.757,0.926 1.148,1.318 0.444,0.444 0.907,0.874 1.391,1.276 0.437,0.363 0.913,0.678 1.423,1.052 -0.349,0.588 -0.663,1.114 -0.99,1.662 0.313,0.38 0.607,0.736 0.98,1.19 -0.319,0.133 -0.519,0.259 -0.735,0.299 -0.762,0.143 -1.525,0.298 -2.296,0.37 -0.831,0.077 -1.48,0.394 -1.94,1.09 -0.131,0.199 -0.287,0.381 -0.404,0.535 -0.019,0.402 0.319,0.353 0.486,0.492 0.281,0.234 0.368,0.556 0.126,0.737 -1.433,1.067 -1.985,2.695 -2.753,4.188 -0.021,0.042 -0.062,0.073 -0.094,0.109 z" /></g><g
           transform="translate(406.4609,207.3252)"
           id="g256"><path
             id="path258"
             style="fill:#ffffff;fill-opacity:1;fill-rule:nonzero;stroke:none"
             d="M 0,0 C 0.235,0.292 0.362,0.503 0.54,0.658 0.865,0.945 1.202,1.228 1.567,1.46 2.602,2.12 3.229,3.047 3.533,4.17 3.305,4.649 3.003,4.772 2.568,4.549 1.95,4.231 1.439,3.811 1.11,3.184 0.032,1.132 -1.057,-0.915 -2.138,-2.965 c -0.086,-0.165 -0.185,-0.347 0.117,-0.543 0.275,0.306 0.572,0.612 0.843,0.938 0.588,0.706 1.166,1.419 1.738,2.137 C 0.6,-0.381 0.55,-0.258 0.541,-0.168 0.447,-0.152 0.353,-0.14 0.26,-0.118 0.217,-0.108 0.178,-0.082 0,0 M 20.885,34.56 C 20.379,33.002 19.891,31.438 19.361,29.889 17.974,25.824 16.681,21.725 15.146,17.715 12.235,10.114 8.493,2.921 3.976,-3.872 c -2.253,-3.388 -4.715,-6.619 -7.295,-9.765 -3.458,-4.215 -7.394,-7.926 -11.856,-11.085 -1.86,-1.315 -3.722,-2.629 -5.563,-3.97 -1.23,-0.896 -2.55,-1.579 -4.027,-1.97 -0.749,-0.198 -1.481,-0.46 -2.226,-0.674 -0.163,-0.048 -0.35,-0.017 -0.67,-0.025 0.742,1.289 1.677,2.268 2.485,3.334 0.848,1.118 1.722,2.215 2.592,3.316 0.841,1.064 1.681,2.127 2.539,3.175 0.859,1.049 1.731,2.089 2.618,3.113 0.888,1.024 1.786,2.039 2.712,3.03 0.958,1.026 1.962,2.011 2.934,3.025 0.929,0.972 1.952,1.862 2.834,3.011 -0.442,0.217 -0.774,0.382 -1.2,0.592 0.333,0.515 0.636,1 0.955,1.475 1.378,2.046 2.773,4.077 3.98,6.234 0.647,1.157 0.897,2.328 0.683,3.612 -0.15,0.899 -0.32,1.795 -0.484,2.71 -0.829,0.36 -1.772,0.309 -2.452,0.93 -0.639,0.584 -1.304,1.141 -1.951,1.703 0.104,1.437 0.456,2.72 1.133,3.919 1.781,3.159 3.532,6.332 5.333,9.48 2.687,4.699 5.421,9.373 8.099,14.078 0.462,0.812 1.009,1.363 1.96,1.532 0.469,0.083 0.907,0.337 1.362,0.503 1.317,0.48 2.379,1.253 3.13,2.465 1.298,2.096 2.646,4.162 3.976,6.238 0.257,0.401 0.527,0.793 0.812,1.219 0.424,-0.241 0.281,-0.628 0.382,-0.917 0.108,-0.307 0.225,-0.611 0.381,-1.033 0.276,0.192 0.508,0.28 0.626,0.448 0.892,1.265 1.747,2.555 2.645,3.816 0.438,0.617 0.556,1.203 0.13,1.869 -0.144,0.223 -0.2,0.502 -0.111,0.852 0.095,-0.137 0.228,-0.261 0.278,-0.412 0.342,-1.053 0.634,-2.115 0.651,-3.236 0.031,-1.999 -0.35,-3.932 -0.934,-5.831 -0.34,-1.108 -0.69,-2.213 -1.091,-3.299 -1.108,-3.004 -1.743,-6.118 -2.283,-9.258 -0.237,-1.378 -0.464,-2.757 -0.69,-4.137 -0.03,-0.186 -0.037,-0.381 -0.019,-0.568 0.005,-0.07 0.104,-0.166 0.178,-0.187 0.078,-0.021 0.226,0.004 0.259,0.06 0.172,0.286 0.34,0.578 0.468,0.886 0.983,2.362 1.954,4.729 2.934,7.093 0.163,0.393 0.25,0.844 0.702,1.054 z" /></g><g
           transform="translate(255.3169,369.9121)"
           id="g260"><path
             id="path262"
             style="fill:#ffffff;fill-opacity:1;fill-rule:nonzero;stroke:none"
             d="m 0,0 c 0.301,0.027 0.541,0.058 0.781,0.067 0.573,0.024 1.02,0.289 1.376,0.714 0.31,0.369 0.661,0.722 0.889,1.139 0.925,1.693 1.802,3.413 2.712,5.114 0.53,0.99 0.765,1.975 0.132,3.009 -0.071,0.118 -0.089,0.27 -0.121,0.409 -0.01,0.04 0.015,0.089 0.041,0.218 0.367,0.121 0.767,0.291 1.185,0.381 0.994,0.215 1.998,0.389 2.997,0.584 2.52,0.49 5.041,0.986 7.562,1.469 0.279,0.053 0.598,0.116 0.855,0.037 1.273,-0.393 2.376,-1.076 3.221,-2.11 0.379,-0.463 0.348,-0.704 0.004,-1.165 C 21.577,9.788 21.524,9.702 21.451,9.643 20.462,8.846 20.05,7.712 19.596,6.592 19.183,5.57 18.83,4.516 18.181,3.529 17.351,3.725 16.75,3.428 16.146,2.811 15.34,1.988 14.347,1.351 13.469,0.594 12.668,-0.096 12.719,-0.351 13.655,-0.83 13.74,-0.873 13.829,-0.911 13.906,-0.966 13.939,-0.99 13.947,-1.05 14,-1.172 13.782,-1.307 13.57,-1.505 13.32,-1.582 11.932,-2.006 10.535,-2.401 9.14,-2.808 8.443,-3.011 7.745,-3.209 7.049,-3.421 4.587,-4.17 2.464,-5.47 0.655,-7.288 0.006,-7.939 -0.66,-8.574 -1.338,-9.195 c -0.423,-0.387 -0.885,-0.733 -1.352,-1.117 -0.713,0.381 -1.204,0.881 -1.559,1.479 0.072,0.565 0.175,1.085 0.195,1.608 0.026,0.654 0.218,1.247 0.621,1.741 1.266,1.546 2.192,3.291 3.1,5.049 C -0.269,-0.309 -0.16,-0.205 0,0" /></g><g
           transform="translate(417.8164,310.6787)"
           id="g264"><path
             id="path266"
             style="fill:#ffffff;fill-opacity:1;fill-rule:nonzero;stroke:none"
             d="m 0,0 c 0.648,-3.057 1.347,-6.104 1.92,-9.175 0.245,-1.315 0.235,-2.678 0.333,-4.02 0.024,-0.335 -0.062,-0.697 0.037,-1.003 0.501,-1.556 0.37,-3.139 0.255,-4.719 -0.122,-1.679 -0.274,-3.356 -0.438,-5.032 -0.117,-1.207 -0.671,-1.488 -1.759,-0.946 -0.639,0.318 -1.076,0.796 -1.325,1.461 -0.505,1.351 -1.022,2.699 -1.541,4.046 -0.259,0.673 -0.47,1.375 -0.822,1.999 -0.319,0.569 -0.287,1.048 -0.088,1.639 1.044,3.107 1.923,6.264 2.442,9.5 0.297,1.849 0.417,3.726 0.621,5.59 0.024,0.225 0.077,0.448 0.117,0.671 C -0.165,0.007 -0.083,0.004 0,0" /></g><g
           transform="translate(434.1973,258.1704)"
           id="g268"><path
             id="path270"
             style="fill:#ffffff;fill-opacity:1;fill-rule:nonzero;stroke:none"
             d="M 0,0 C 0.077,0.572 0.175,1.142 0.225,1.716 0.257,2.097 0.265,2.491 0.202,2.865 0.158,3.122 0.033,3.493 -0.158,3.572 -0.595,3.754 -0.679,3.286 -0.849,3.02 -1.05,2.705 -1.237,2.38 -1.423,2.072 c -0.433,0.161 -0.399,0.479 -0.404,0.754 -0.029,1.492 -0.06,2.985 -0.063,4.477 -0.006,2.887 0.026,5.776 -0.002,8.663 -0.005,0.65 0.038,1.234 0.591,1.68 -0.267,1.081 -0.52,2.107 -0.775,3.133 -0.533,2.148 -1.16,4.278 -1.572,6.449 -0.331,1.745 -0.412,3.537 -0.582,5.311 -0.074,0.762 -0.095,1.529 -0.045,2.304 0.411,-3.14 0.821,-6.279 1.224,-9.365 0.432,-0.144 0.562,0.047 0.596,0.306 0.181,1.384 0.343,2.771 0.523,4.154 0.049,0.376 0.139,0.746 0.245,1.293 0.218,-0.254 0.37,-0.363 0.43,-0.51 0.985,-2.367 1.676,-4.824 2.083,-7.347 C 1.465,19.417 1.602,15.432 1.424,11.424 1.275,8.101 0.969,4.8 0.429,1.52 0.346,1.015 0.397,0.448 -0.025,0.034 -0.021,0.029 0,0 0,0" /></g><g
           transform="translate(354.9072,270.2915)"
           id="g272"><path
             id="path274"
             style="fill:#ffffff;fill-opacity:1;fill-rule:nonzero;stroke:none"
             d="m 0,0 c 0.238,-0.468 0.465,-0.888 0.667,-1.32 0.191,-0.409 0.21,-0.823 0.036,-1.258 -1.849,-4.656 -3.691,-9.316 -5.54,-13.972 -0.052,-0.131 -0.157,-0.241 -0.281,-0.425 -0.541,-0.16 -1.109,-0.433 -1.83,-0.278 -0.853,1.432 -1.324,2.958 -0.997,4.652 0.273,1.416 0.544,2.834 0.892,4.232 0.53,2.124 1.692,3.862 3.396,5.258 C -2.465,-2.134 -1.308,-1.115 0,0" /></g><g
           transform="translate(379.6582,384.2725)"
           id="g276"><path
             id="path278"
             style="fill:#ffffff;fill-opacity:1;fill-rule:nonzero;stroke:none"
             d="m 0,0 c -0.238,0.228 -0.479,0.453 -0.717,0.683 -2.744,2.66 -5.646,5.144 -8.619,7.547 -4.179,3.379 -8.836,5.909 -13.876,7.781 -1.588,0.591 -3.148,1.257 -4.702,1.934 -0.861,0.376 -0.922,0.597 -0.757,1.797 0.236,-0.094 0.46,-0.162 0.664,-0.267 4.391,-2.265 8.795,-4.503 13.16,-6.813 1.795,-0.951 3.508,-2.056 5.256,-3.094 3.296,-1.955 5.996,-4.56 8.338,-7.552 0.476,-0.608 0.945,-1.22 1.418,-1.83 C 0.11,0.124 0.056,0.062 0,0" /></g><g
           transform="translate(242.6138,369.874)"
           id="g280"><path
             id="path282"
             style="fill:#ffffff;fill-opacity:1;fill-rule:nonzero;stroke:none"
             d="M 0,0 C 0.359,-0.007 0.637,0.276 0.586,0.563 0.561,0.708 0.4,0.886 0.259,0.94 0.034,1.025 -0.216,0.729 -0.194,0.387 -0.185,0.239 -0.053,0.099 0,0 m -1.381,-1.388 c -0.143,0.458 -0.39,1.087 -0.53,1.74 -0.158,0.731 0.192,1.219 0.942,1.349 0.902,0.156 1.814,0.25 2.846,0.235 C 1.792,1.671 1.74,1.513 1.666,1.286 2.205,0.926 2.716,1.164 3.29,1.396 3.314,1.774 3.268,2.164 3.383,2.5 3.485,2.798 3.767,3.035 4.031,3.379 3.747,3.611 3.503,3.81 3.257,4.011 3.27,4.096 3.25,4.218 3.299,4.26 3.995,4.847 4.656,5.477 5.584,6.145 5.288,4.176 4.734,2.496 4.323,0.773 4.01,0.611 3.685,0.499 3.434,0.296 3.215,0.12 3.073,-0.154 2.908,-0.393 2.306,-1.266 1.672,-2.113 0.947,-2.782 c -0.77,0.461 -1.465,0.877 -2.328,1.394" /></g><g
           transform="translate(412.8809,280.4053)"
           id="g284"><path
             id="path286"
             style="fill:#ffffff;fill-opacity:1;fill-rule:nonzero;stroke:none"
             d="M 0,0 C 0.955,-0.415 1.812,-0.744 2.625,-1.161 2.997,-1.351 3.292,-1.701 3.598,-2.003 3.73,-2.135 3.83,-2.316 3.9,-2.492 4.621,-4.28 6.022,-5.441 7.578,-6.468 8.504,-7.079 9.415,-7.71 10.312,-8.319 10.238,-8.804 9.947,-8.77 9.654,-8.685 9.518,-8.645 9.393,-8.558 9.272,-8.479 7.094,-7.037 4.903,-5.611 2.745,-4.14 1.699,-3.427 0.856,-2.486 0.093,-1.483 -0.26,-1.02 -0.242,-0.993 0,0" /></g><g
           transform="translate(332.4561,151.4883)"
           id="g288"><path
             id="path290"
             style="fill:#ffffff;fill-opacity:1;fill-rule:nonzero;stroke:none"
             d="m 0,0 c -0.892,-0.549 -1.614,-1.006 -2.349,-1.441 -1.581,-0.938 -3.188,-1.833 -4.745,-2.81 -0.723,-0.454 -1.459,-0.728 -2.308,-0.747 -0.431,-0.009 -0.862,-0.071 -1.28,-0.108 -0.149,0.257 0.015,0.384 0.173,0.47 2.508,1.361 5.008,2.736 7.537,4.056 C -2.13,-0.142 -1.203,0.112 0,0" /></g><g
           transform="translate(201.6636,308.6299)"
           id="g292"><path
             id="path294"
             style="fill:#ffffff;fill-opacity:1;fill-rule:nonzero;stroke:none"
             d="M 0,0 C -1.205,-0.314 -1.973,-0.102 -2.581,0.664 -3.15,1.381 -3.738,2.083 -4.312,2.795 -4.675,3.246 -5.018,3.712 -5.386,4.158 -6.126,5.052 -6.151,5.05 -7.27,4.422 -7.292,4.41 -7.348,4.455 -7.388,4.473 -7.4,4.558 -7.454,4.685 -7.417,4.723 -6.88,5.276 -6.28,5.745 -5.54,6.131 -4.416,5.315 -3.673,4.179 -2.776,3.195 -1.874,2.206 -1.017,1.175 0,0" /></g><g
           transform="translate(274.4102,363.9399)"
           id="g296"><path
             id="path298"
             style="fill:#ffffff;fill-opacity:1;fill-rule:nonzero;stroke:none"
             d="m 0,0 c -0.271,-0.306 -0.397,-0.512 -0.579,-0.644 -0.518,-0.377 -1.384,0.114 -1.747,-0.68 -0.626,-0.031 -1.252,-0.096 -1.877,-0.085 -0.56,0.011 -0.858,0.367 -0.98,0.9 -0.176,0.768 0.12,1.275 0.905,1.3 1.065,0.032 2.143,0.038 3.182,-0.257 C -0.778,0.444 -0.492,0.245 0,0" /></g><g
           transform="translate(323.2549,144.0254)"
           id="g300"><path
             id="path302"
             style="fill:#ffffff;fill-opacity:1;fill-rule:nonzero;stroke:none"
             d="m 0,0 c -3.957,-0.505 -7.629,-0.974 -11.302,-1.443 -0.01,0.054 -0.018,0.109 -0.028,0.164 2.259,0.499 4.518,0.999 6.776,1.499 0.425,0.093 0.861,0.156 1.273,0.29 C -2.202,0.863 -1.198,0.736 0,0" /></g><g
           transform="translate(420.8975,320.0645)"
           id="g304"><path
             id="path306"
             style="fill:#ffffff;fill-opacity:1;fill-rule:nonzero;stroke:none"
             d="M 0,0 C 0.323,-0.888 0.611,-1.79 0.979,-2.659 1.388,-3.623 1.53,-4.578 1.122,-5.552 0.616,-5.111 -0.264,-3.757 -0.496,-3.022 -0.819,-2 -0.442,-1.041 0,0" /></g><g
           transform="translate(409.2305,340.8467)"
           id="g308"><path
             id="path310"
             style="fill:#ffffff;fill-opacity:1;fill-rule:nonzero;stroke:none"
             d="M 0,0 C 0.24,-0.458 0.494,-0.909 0.717,-1.375 1.605,-3.239 2.496,-5.103 3.36,-6.978 3.798,-7.926 4.349,-8.734 5.418,-9.056 5.502,-9.081 5.571,-9.167 5.638,-9.232 5.67,-9.265 5.682,-9.317 5.702,-9.361 4.955,-9.999 4.652,-10.002 4.263,-9.282 3.325,-7.549 2.416,-5.801 1.507,-4.054 0.93,-2.946 0.365,-1.831 -0.187,-0.71 -0.28,-0.522 -0.285,-0.291 -0.332,-0.08 -0.221,-0.053 -0.11,-0.026 0,0" /></g><g
           transform="translate(277.1152,348.5884)"
           id="g312"><path
             id="path314"
             style="fill:#ffffff;fill-opacity:1;fill-rule:nonzero;stroke:none"
             d="M 0,0 C -0.045,1.034 0.467,2.288 1.404,3.845 2.028,3.65 2.032,3.655 2.614,3.089 1.954,1.898 0.926,0.995 0,0" /></g><g
           transform="translate(387.582,303.0005)"
           id="g316"><path
             id="path318"
             style="fill:#ffffff;fill-opacity:1;fill-rule:nonzero;stroke:none"
             d="M 0,0 C -0.711,1.26 -1.187,2.598 -1.659,3.935 -1.712,4.083 -1.604,4.288 -1.543,4.618 -1.328,4.412 -1.178,4.317 -1.098,4.181 -0.544,3.233 0.017,2.288 0.532,1.319 0.818,0.781 0.739,0.651 0,0" /></g><g
           transform="translate(203.6553,305.2837)"
           id="g320"><path
             id="path322"
             style="fill:#ffffff;fill-opacity:1;fill-rule:nonzero;stroke:none"
             d="M 0,0 C 0.151,0.6 -0.05,1.197 0.352,1.761 1.224,1.391 2.013,0.967 2.841,0.318 1.897,-0.125 1.112,-0.577 0,0" /></g><g
           transform="translate(248.4048,376.7603)"
           id="g324"><path
             id="path326"
             style="fill:#ffffff;fill-opacity:1;fill-rule:nonzero;stroke:none"
             d="M 0,0 C -0.518,0.231 -0.982,0.439 -1.547,0.691 -0.939,1.457 -0.402,2.085 0.521,2.438 0.648,1.552 0.309,0.836 0,0" /></g><g
           transform="translate(373.2002,175.5068)"
           id="g328"><path
             id="path330"
             style="fill:#ffffff;fill-opacity:1;fill-rule:nonzero;stroke:none"
             d="m 0,0 c 0.035,-0.298 -0.006,-0.562 -0.254,-0.78 -0.725,-0.639 -1.433,-1.295 -2.155,-1.936 -0.305,-0.27 -0.644,-0.414 -1.037,-0.156 -0.083,0.317 0.169,0.434 0.349,0.562 0.789,0.557 1.596,1.088 2.382,1.65 0.266,0.189 0.487,0.44 0.73,0.663 z" /></g><g
           transform="translate(263.8232,191.5254)"
           id="g332"><path
             id="path334"
             style="fill:#ffffff;fill-opacity:1;fill-rule:nonzero;stroke:none"
             d="M 0,0 C -0.164,0.438 -0.352,0.869 -0.484,1.316 -0.629,1.801 -1.053,2.202 -0.911,2.902 -0.712,2.675 -0.49,2.536 -0.448,2.355 -0.269,1.576 -0.142,0.785 0.005,-0.003 0.006,-0.005 0,0 0,0" /></g><g
           transform="translate(436.7236,267.2632)"
           id="g336"><path
             id="path338"
             style="fill:#ffffff;fill-opacity:1;fill-rule:nonzero;stroke:none"
             d="M 0,0 C -0.021,0.473 -0.065,0.948 -0.045,1.419 -0.039,1.534 0.18,1.64 0.432,1.869 0.566,1.068 0.382,0.525 0,0" /></g><g
           transform="translate(308.4287,378.4868)"
           id="g340"><path
             id="path342"
             style="fill:#ffffff;fill-opacity:1;fill-rule:nonzero;stroke:none"
             d="M 0,0 C -0.548,0.367 -1.099,0.729 -1.641,1.105 -1.692,1.14 -1.69,1.25 -1.755,1.458 -1.109,0.926 -0.361,0.7 -0.034,-0.036 Z" /></g><g
           transform="translate(296.5234,336.3076)"
           id="g344"><path
             id="path346"
             style="fill:#ffffff;fill-opacity:1;fill-rule:nonzero;stroke:none"
             d="M 0,0 C 0.111,-0.185 0.252,-0.359 0.315,-0.558 0.339,-0.63 0.193,-0.813 0.091,-0.849 0.009,-0.877 -0.197,-0.783 -0.223,-0.703 -0.284,-0.507 -0.273,-0.289 -0.292,-0.08 -0.194,-0.053 -0.098,-0.027 0,0" /></g><g
           transform="translate(248.6265,206.5059)"
           id="g348"><path
             id="path350"
             style="fill:#ffffff;fill-opacity:1;fill-rule:nonzero;stroke:none"
             d="m 0,0 c -0.135,-0.144 -0.28,-0.319 -0.451,-0.466 -0.051,-0.044 -0.236,-0.032 -0.251,0.001 -0.048,0.109 -0.102,0.276 -0.05,0.354 0.1,0.153 0.26,0.275 0.417,0.379 0.046,0.03 0.168,-0.037 0.246,-0.077 C -0.057,0.175 -0.049,0.111 0,0" /></g><g
           transform="translate(425.4512,269.9941)"
           id="g352"><path
             id="path354"
             style="fill:#ffffff;fill-opacity:1;fill-rule:nonzero;stroke:none"
             d="M 0,0 C -0.183,-0.271 -0.289,-0.429 -0.461,-0.684 -0.526,-0.27 -0.374,-0.142 0,0" /></g><g
           transform="translate(308.3945,378.4507)"
           id="g356"><path
             id="path358"
             style="fill:#ffffff;fill-opacity:1;fill-rule:nonzero;stroke:none"
             d="M 0,0 C 0.437,0.063 0.703,-0.181 1.123,-0.704 0.556,-0.44 0.266,-0.25 0.035,0.038 0.034,0.036 0,0 0,0" /></g><g
           transform="translate(238.3071,372.2847)"
           id="g360"><path
             id="path362"
             style="fill:#ffffff;fill-opacity:1;fill-rule:nonzero;stroke:none"
             d="m 0,0 c -0.116,0.055 -0.254,0.105 -0.25,0.12 0.032,0.126 0.089,0.246 0.139,0.367 C -0.046,0.451 0.074,0.414 0.073,0.378 0.073,0.256 0.029,0.134 0,0" /></g><g
           transform="translate(433.9463,257.0786)"
           id="g364"><path
             id="path366"
             style="fill:#ffffff;fill-opacity:1;fill-rule:nonzero;stroke:none"
             d="M 0,0 C 0.087,0.361 0.173,0.722 0.255,1.087 0.251,1.092 0.229,1.121 0.226,1.125 0.356,0.717 0.388,0.325 0.003,0.012 Z" /></g><g
           transform="translate(244.9453,404.2944)"
           id="g368"><path
             id="path370"
             style="fill:#ffffff;fill-opacity:1;fill-rule:nonzero;stroke:none"
             d="m 0,0 c -0.033,-0.098 -0.038,-0.204 -0.092,-0.248 -0.045,-0.036 -0.15,0.003 -0.228,0.009 0.036,0.073 0.056,0.164 0.112,0.214 C -0.167,0.012 -0.077,-0.007 0,0" /></g><g
           transform="translate(433.9492,257.0908)"
           id="g372"><path
             id="path374"
             style="fill:#ffffff;fill-opacity:1;fill-rule:nonzero;stroke:none"
             d="M 0,0 C 0.038,-0.171 0.076,-0.343 0.114,-0.514 0.092,-0.518 0.069,-0.522 0.046,-0.527 0.031,-0.359 0.017,-0.192 -0.001,-0.019 -0.003,-0.012 0,0 0,0" /></g><g
           transform="translate(175.9346,326.2051)"
           id="g376"><path
             id="path378"
             style="fill:#ffffff;fill-opacity:1;fill-rule:nonzero;stroke:none"
             d="M 0,0 C 0.051,-0.162 0.103,-0.323 0.153,-0.485 0.125,-0.492 0.097,-0.5 0.069,-0.506 0.055,-0.35 0.041,-0.192 0.021,-0.028 0.015,-0.022 0,0 0,0" /></g><g
           transform="translate(433.8145,255.1738)"
           id="g380"><path
             id="path382"
             style="fill:#ffffff;fill-opacity:1;fill-rule:nonzero;stroke:none"
             d="m 0,0 c -0.017,0.032 -0.044,0.062 -0.046,0.095 -0.003,0.033 0.02,0.068 0.03,0.102 C 0.001,0.166 0.029,0.135 0.031,0.102 0.034,0.069 0.012,0.034 0,0" /></g><g
           transform="translate(238.1133,366.1777)"
           id="g384"><path
             id="path386"
             style="fill:#ffffff;fill-opacity:1;fill-rule:nonzero;stroke:none"
             d="m 0,0 c -0.02,-0.032 -0.039,-0.064 -0.058,-0.096 l -0.094,0.15 c 0.033,0.015 0.077,0.052 0.096,0.042 C -0.028,0.082 -0.018,0.034 0,0" /></g><g
           transform="translate(228.6221,390.8779)"
           id="g388"><path
             id="path390"
             style="fill:#ffffff;fill-opacity:1;fill-rule:nonzero;stroke:none"
             d="m 0,0 c -0.086,0.056 -0.173,0.111 -0.26,0.167 0.079,0.037 0.158,0.073 0.237,0.109 l -0.045,0.029 c 0.008,-0.114 0.018,-0.227 0.026,-0.34 z" /></g><g
           transform="translate(427.3398,242.8545)"
           id="g392"><path
             id="path394"
             style="fill:#ffffff;fill-opacity:1;fill-rule:nonzero;stroke:none"
             d="M 0,0 C 0.058,-0.001 0.115,-0.003 0.173,-0.005 0.161,0.035 0.15,0.076 0.14,0.116 0.095,0.079 0.051,0.042 0.006,0.004 Z" /></g><g
           transform="translate(427.3555,241.8584)"
           id="g396"><path
             id="path398"
             style="fill:#ffffff;fill-opacity:1;fill-rule:nonzero;stroke:none"
             d="M 0,0 C -0.006,0.331 -0.011,0.663 -0.016,0.995 -0.016,0.996 -0.01,1 -0.01,1 -0.013,0.682 -0.016,0.361 -0.014,0.034 -0.01,0.026 0,0 0,0" /></g><g
           transform="translate(400.9941,353.2349)"
           id="g400"><path
             id="path402"
             style="fill:#ffffff;fill-opacity:1;fill-rule:nonzero;stroke:none"
             d="M 0,0 C -0.013,0.034 -0.026,0.068 -0.039,0.102 -0.07,0.086 -0.102,0.071 -0.133,0.056 -0.085,0.028 -0.037,0.001 0.011,-0.026 Z" /></g><g
           transform="translate(401.0049,353.209)"
           id="g404"><path
             id="path406"
             style="fill:#ffffff;fill-opacity:1;fill-rule:nonzero;stroke:none"
             d="M 0,0 C 0.119,-0.192 0.239,-0.384 0.358,-0.577 L 0.322,-0.558 C 0.211,-0.367 0.1,-0.177 -0.012,0.02 -0.011,0.026 0,0 0,0" /></g><g
           transform="translate(231.085,392.5176)"
           id="g408"><path
             id="path410"
             style="fill:#ffffff;fill-opacity:1;fill-rule:nonzero;stroke:none"
             d="M 0,0 C 0.099,0.274 0.333,0.33 0.585,0.353 L 0.544,0.385 C 0.354,0.268 0.164,0.151 -0.026,0.035 Z" /></g><g
           transform="translate(373.2148,175.5098)"
           id="g412"><path
             id="path414"
             style="fill:#ffffff;fill-opacity:1;fill-rule:nonzero;stroke:none"
             d="M 0,0 C 0.115,-0.016 0.229,-0.032 0.345,-0.048 L 0.333,-0.092 C 0.221,-0.063 0.108,-0.034 -0.009,-0.004 -0.015,-0.003 0,0 0,0" /></g><g
           transform="translate(401.3633,352.6323)"
           id="g416"><path
             id="path418"
             style="fill:#ffffff;fill-opacity:1;fill-rule:nonzero;stroke:none"
             d="m 0,0 c -0.013,-0.065 -0.026,-0.131 -0.039,-0.196 0.02,0.033 0.059,0.067 0.057,0.099 C 0.016,-0.058 -0.02,-0.021 -0.038,0.018 -0.036,0.019 0,0 0,0" /></g></g></g><g
       id="g420"><g
         clip-path="url(#clipPath426)"
         id="g422"><g
           id="g428"><g
             id="g430"><path
               id="path438"
               style="fill:url(#linearGradient436);stroke:none"
               d="M 304.859,92.537 C 279.908,85.255 261.634,83.264 257.088,82.144 v 0 c 0.995,-0.001 1.945,0.03 2.877,0.06 v 0 c 5.397,0.178 10.155,0.354 19.315,-5.518 v 0 c 1.527,-0.979 3.594,-2.262 5.629,-4.661 v 0 c 7.89,-9.298 9.561,-30.974 9.941,-36.586 v 0 c -1.89,0.909 -3.734,1.973 -5.53,2.929 v 0 c -17.16,10.754 -34.129,24.589 -46.886,41.525 v 0 L 231.471,70.92 c 17.497,-17.544 36.851,-31.2 58.022,-40.955 v 0 c -20.804,-6.533 -34.384,10.743 -50.177,19.53 v 0 c -18.402,12.736 -44.867,18.718 -67.107,9.931 v 0 C 160.248,54.929 148.66,48.307 140,37.544 v 0 c 17.503,11.951 43.569,13.204 63.474,5.442 v 0 c 26.71,-11.483 54.464,-26.04 86.663,-19.078 v 0 c 2.129,0.927 6.194,2.353 11.396,2.035 v 0 c 3.895,-0.237 6.952,-1.361 8.866,-2.248 v 0 c 7.619,-1.4 18.537,-2.522 31.454,-0.881 v 0 c 15.264,1.939 27.092,6.944 34.567,10.834 v 0 l 21.236,8.437 c 19.739,7.235 45.257,5.233 62.176,-6.686 v 0 c -8.699,10.731 -20.581,18.42 -32.852,22.776 v 0 C 399.606,68.3 371.039,57.712 349.659,41.643 v 0 C 341.004,36.188 333.373,28.336 322.177,29.03 v 0 c -4.061,-0.076 -7.977,0.121 -11.428,1.109 v 0 c 20.771,9.581 40.064,22.789 57.704,39.679 v 0 c -2.973,3.366 -6.823,6.513 -10.449,9.414 v 0 C 342.584,62.764 325.655,46.876 306.913,36.444 v 0 c -6.214,14.236 -7.567,28.928 -4.272,38.954 v 0 C 308.043,90.272 319.266,93.38 323.699,99 v 0 c -4.288,-1.698 -10.782,-4.11 -18.84,-6.463" /></g></g></g></g></g></svg>